<?xml version="1.0" encoding="UTF-8" standalone="no"?>
<!DOCTYPE svg PUBLIC "-//W3C//DTD SVG 1.1//EN" "http://www.w3.org/Graphics/SVG/1.1/DTD/svg11.dtd">
<!-- Created with Vectornator (http://vectornator.io/) -->
<svg height="100%" stroke-miterlimit="10" style="fill-rule:nonzero;clip-rule:evenodd;stroke-linecap:round;stroke-linejoin:round;" version="1.1" viewBox="250.906 245.271 395.562 356.1" width="100%" xml:space="preserve" xmlns="http://www.w3.org/2000/svg" xmlns:xlink="http://www.w3.org/1999/xlink">
<defs/>
<g id="Layer-1">
<g opacity="1">
<path d="M493.477 271.135L566.412 397.458L639.347 523.782C648.842 540.229 648.842 559.057 639.347 575.508C629.852 591.955 613.544 601.372 594.554 601.372L302.82 601.372C283.826 601.372 267.522 591.955 258.027 575.508C248.532 559.061 248.532 540.234 258.027 523.782L330.962 397.458L403.897 271.135C413.391 254.688 429.7 245.271 448.689 245.271C467.679 245.271 483.987 254.688 493.482 271.135L493.482 271.135L493.477 271.135ZM476.697 280.824C470.662 270.37 460.75 264.65 448.68 264.65C436.61 264.65 426.698 270.375 420.663 280.824L274.798 533.472C268.763 543.925 268.763 555.37 274.798 565.819C280.833 576.273 290.745 581.993 302.815 581.993L594.549 581.993C606.62 581.993 616.531 576.268 622.566 565.819C628.601 555.365 628.601 543.921 622.566 533.472L476.702 280.824L476.697 280.824Z" fill="#ffba4c" fill-rule="nonzero" opacity="1" stroke="none"/>
<path d="M469.708 284.858C465.118 276.906 457.869 272.719 448.685 272.719C439.5 272.719 432.252 276.906 427.662 284.858L281.797 537.506C277.202 545.458 277.202 553.828 281.797 561.785C286.391 569.737 293.635 573.924 302.82 573.924L594.554 573.924C603.739 573.924 610.987 569.737 615.577 561.785C620.172 553.832 620.172 545.463 615.577 537.506L469.712 284.858L469.712 284.858L469.708 284.858ZM448.685 506.307C458.471 506.307 466.401 514.241 466.401 524.023C466.401 533.805 458.467 541.739 448.685 541.739C438.903 541.739 430.969 533.805 430.969 524.023C430.969 514.241 438.903 506.307 448.685 506.307L448.685 506.307ZM438.509 484.256L428.333 366.273C425.689 335.621 471.709 335.329 469.041 366.273L458.865 484.256L438.514 484.256L438.509 484.256Z" fill="#ffba4c" fill-rule="nonzero" opacity="1" stroke="none"/>
</g>
</g>
</svg>
