<?xml version="1.0" encoding="UTF-8" standalone="no"?>
<!DOCTYPE svg PUBLIC "-//W3C//DTD SVG 1.1//EN" "http://www.w3.org/Graphics/SVG/1.1/DTD/svg11.dtd">
<!-- Created with Vectornator (http://vectornator.io/) -->
<svg height="100%" stroke-miterlimit="10" style="fill-rule:nonzero;clip-rule:evenodd;stroke-linecap:round;stroke-linejoin:round;" version="1.1" viewBox="0 0 14.58 23" width="100%" xml:space="preserve" xmlns="http://www.w3.org/2000/svg" xmlns:xlink="http://www.w3.org/1999/xlink">
<defs/>
<g id="Layer-1">
<path d="M7.29 0C3.27 0 0 3.27 0 7.29L0 15.55C0 19.57 3.27 22.84 7.29 22.84C11.31 22.84 14.58 19.57 14.58 15.55L14.58 7.29C14.58 3.27 11.31 0 7.29 0ZM7.29 6.88C6.76 6.88 6.32 6.45 6.32 5.91L6.32 3.16C6.32 2.63 6.75 2.19 7.29 2.19C7.83 2.19 8.26 2.62 8.26 3.16L8.26 5.91C8.26 6.44 7.83 6.88 7.29 6.88ZM6.88 0.86L6.88 1.46C6.1 1.65 5.5 2.32 5.5 3.16L5.5 5.91C5.5 6.75 6.1 7.43 6.88 7.61L6.88 8.25L0.82 8.25L0.82 7.28C0.82 3.85 3.51 1.06 6.88 0.85L6.88 0.86ZM7.29 22.02C3.72 22.02 0.82 19.12 0.82 15.55L0.82 9.08L13.76 9.08L13.76 15.55C13.76 19.12 10.86 22.02 7.29 22.02ZM13.76 8.26L7.7 8.26L7.7 7.62C8.48 7.43 9.08 6.76 9.08 5.92L9.08 3.17C9.08 2.33 8.48 1.66 7.7 1.47L7.7 0.87C11.08 1.09 13.76 3.87 13.76 7.3L13.76 8.27L13.76 8.26Z" fill="#000000" fill-rule="nonzero" opacity="1" stroke="none"/>
</g>
<clipPath id="ArtboardFrame">
<rect height="23" width="14.58" x="0" y="0"/>
</clipPath>
<g clip-path="url(#ArtboardFrame)" id="Untitled">
<g fill="#000000" opacity="1" stroke="none">
<path d="M1.896 41.072L1.896 42.84L2.236 42.84L2.236 41.072L2.636 41.072L2.636 40.772L2.236 40.772L2.236 40.484C2.236 40.3933 2.25867 40.332 2.304 40.3C2.34933 40.268 2.41333 40.252 2.496 40.252C2.52533 40.252 2.55733 40.254 2.592 40.258C2.62667 40.262 2.65867 40.2693 2.688 40.28L2.688 39.984C2.656 39.9733 2.61933 39.9653 2.578 39.96C2.53667 39.9547 2.5 39.952 2.468 39.952C2.28133 39.952 2.13933 39.9953 2.042 40.082C1.94467 40.1687 1.896 40.296 1.896 40.464L1.896 40.772L1.548 40.772L1.548 41.072L1.896 41.072Z"/>
<path d="M2.928 40.772L2.928 42.84L3.268 42.84L3.268 41.92C3.268 41.7867 3.28133 41.6687 3.308 41.566C3.33467 41.4633 3.37733 41.376 3.436 41.304C3.49467 41.232 3.572 41.1773 3.668 41.14C3.764 41.1027 3.88 41.084 4.016 41.084L4.016 40.724C3.832 40.7187 3.68 40.756 3.56 40.836C3.44 40.916 3.33867 41.04 3.256 41.208L3.248 41.208L3.248 40.772L2.928 40.772Z"/>
<path d="M4.448 41.808C4.448 41.6827 4.46467 41.5713 4.498 41.474C4.53133 41.3767 4.57733 41.2947 4.636 41.228C4.69467 41.1613 4.76333 41.1107 4.842 41.076C4.92067 41.0413 5.004 41.024 5.092 41.024C5.18 41.024 5.26333 41.0413 5.342 41.076C5.42067 41.1107 5.48933 41.1613 5.548 41.228C5.60667 41.2947 5.65267 41.3767 5.686 41.474C5.71933 41.5713 5.736 41.6827 5.736 41.808C5.736 41.9333 5.71933 42.0447 5.686 42.142C5.65267 42.2393 5.60667 42.3207 5.548 42.386C5.48933 42.4513 5.42067 42.5013 5.342 42.536C5.26333 42.5707 5.18 42.588 5.092 42.588C5.004 42.588 4.92067 42.5707 4.842 42.536C4.76333 42.5013 4.69467 42.4513 4.636 42.386C4.57733 42.3207 4.53133 42.2393 4.498 42.142C4.46467 42.0447 4.448 41.9333 4.448 41.808ZM4.088 41.808C4.088 41.96 4.10933 42.1013 4.152 42.232C4.19467 42.3627 4.25867 42.4767 4.344 42.574C4.42933 42.6713 4.53467 42.7473 4.66 42.802C4.78533 42.8567 4.92933 42.884 5.092 42.884C5.25733 42.884 5.402 42.8567 5.526 42.802C5.65 42.7473 5.75467 42.6713 5.84 42.574C5.92533 42.4767 5.98933 42.3627 6.032 42.232C6.07467 42.1013 6.096 41.96 6.096 41.808C6.096 41.656 6.07467 41.514 6.032 41.382C5.98933 41.25 5.92533 41.1353 5.84 41.038C5.75467 40.9407 5.65 40.864 5.526 40.808C5.402 40.752 5.25733 40.724 5.092 40.724C4.92933 40.724 4.78533 40.752 4.66 40.808C4.53467 40.864 4.42933 40.9407 4.344 41.038C4.25867 41.1353 4.19467 41.25 4.152 41.382C4.10933 41.514 4.088 41.656 4.088 41.808Z"/>
<path d="M6.496 40.772L6.496 42.84L6.836 42.84L6.836 41.552C6.836 41.512 6.846 41.462 6.866 41.402C6.886 41.342 6.918 41.284 6.962 41.228C7.006 41.172 7.06333 41.124 7.134 41.084C7.20467 41.044 7.28933 41.024 7.388 41.024C7.46533 41.024 7.52867 41.0353 7.578 41.058C7.62733 41.0807 7.66667 41.1127 7.696 41.154C7.72533 41.1953 7.746 41.244 7.758 41.3C7.77 41.356 7.776 41.4173 7.776 41.484L7.776 42.84L8.116 42.84L8.116 41.552C8.116 41.392 8.164 41.264 8.26 41.168C8.356 41.072 8.488 41.024 8.656 41.024C8.73867 41.024 8.806 41.036 8.858 41.06C8.91 41.084 8.95067 41.1167 8.98 41.158C9.00933 41.1993 9.02933 41.248 9.04 41.304C9.05067 41.36 9.056 41.42 9.056 41.484L9.056 42.84L9.396 42.84L9.396 41.324C9.396 41.2173 9.37933 41.126 9.346 41.05C9.31267 40.974 9.266 40.912 9.206 40.864C9.146 40.816 9.074 40.7807 8.99 40.758C8.906 40.7353 8.812 40.724 8.708 40.724C8.572 40.724 8.44733 40.7547 8.334 40.816C8.22067 40.8773 8.12933 40.964 8.06 41.076C8.01733 40.948 7.944 40.8573 7.84 40.804C7.736 40.7507 7.62 40.724 7.492 40.724C7.20133 40.724 6.97867 40.8413 6.824 41.076L6.816 41.076L6.816 40.772L6.496 40.772Z"/>
<path d="M11.492 40.772L11.492 40.152L11.152 40.152L11.152 40.772L10.8 40.772L10.8 41.072L11.152 41.072L11.152 42.388C11.152 42.484 11.1613 42.5613 11.18 42.62C11.1987 42.6787 11.2273 42.724 11.266 42.756C11.3047 42.788 11.3553 42.81 11.418 42.822C11.4807 42.834 11.556 42.84 11.644 42.84L11.904 42.84L11.904 42.54L11.748 42.54C11.6947 42.54 11.6513 42.538 11.618 42.534C11.5847 42.53 11.5587 42.5213 11.54 42.508C11.5213 42.4947 11.5087 42.476 11.502 42.452C11.4953 42.428 11.492 42.396 11.492 42.356L11.492 41.072L11.904 41.072L11.904 40.772L11.492 40.772Z"/>
<path d="M12.28 39.984L12.28 42.84L12.62 42.84L12.62 41.672C12.62 41.5787 12.6327 41.4927 12.658 41.414C12.6833 41.3353 12.7213 41.2667 12.772 41.208C12.8227 41.1493 12.886 41.104 12.962 41.072C13.038 41.04 13.128 41.024 13.232 41.024C13.3627 41.024 13.4653 41.0613 13.54 41.136C13.6147 41.2107 13.652 41.312 13.652 41.44L13.652 42.84L13.992 42.84L13.992 41.48C13.992 41.368 13.9807 41.266 13.958 41.174C13.9353 41.082 13.896 41.0027 13.84 40.936C13.784 40.8693 13.7107 40.8173 13.62 40.78C13.5293 40.7427 13.416 40.724 13.28 40.724C13.2187 40.724 13.1553 40.7307 13.09 40.744C13.0247 40.7573 12.962 40.778 12.902 40.806C12.842 40.834 12.788 40.87 12.74 40.914C12.692 40.958 12.6547 41.012 12.628 41.076L12.62 41.076L12.62 39.984L12.28 39.984Z"/>
<path d="M15.94 41.608L14.752 41.608C14.7573 41.528 14.7747 41.4527 14.804 41.382C14.8333 41.3113 14.8733 41.2493 14.924 41.196C14.9747 41.1427 15.0353 41.1007 15.106 41.07C15.1767 41.0393 15.256 41.024 15.344 41.024C15.4293 41.024 15.5073 41.0393 15.578 41.07C15.6487 41.1007 15.71 41.142 15.762 41.194C15.814 41.246 15.8553 41.308 15.886 41.38C15.9167 41.452 15.9347 41.528 15.94 41.608ZM16.268 42.184L15.932 42.184C15.9027 42.32 15.842 42.4213 15.75 42.488C15.658 42.5547 15.54 42.588 15.396 42.588C15.284 42.588 15.1867 42.5693 15.104 42.532C15.0213 42.4947 14.9533 42.4447 14.9 42.382C14.8467 42.3193 14.808 42.2473 14.784 42.166C14.76 42.0847 14.7493 41.9987 14.752 41.908L16.3 41.908C16.3053 41.7827 16.294 41.6507 16.266 41.512C16.238 41.3733 16.1873 41.2453 16.114 41.128C16.0407 41.0107 15.9433 40.914 15.822 40.838C15.7007 40.762 15.548 40.724 15.364 40.724C15.2227 40.724 15.0927 40.7507 14.974 40.804C14.8553 40.8573 14.7527 40.932 14.666 41.028C14.5793 41.124 14.512 41.2373 14.464 41.368C14.416 41.4987 14.392 41.6427 14.392 41.8C14.3973 41.9573 14.4207 42.1027 14.462 42.236C14.5033 42.3693 14.5653 42.484 14.648 42.58C14.7307 42.676 14.8327 42.7507 14.954 42.804C15.0753 42.8573 15.2187 42.884 15.384 42.884C15.6187 42.884 15.8133 42.8253 15.968 42.708C16.1227 42.5907 16.2227 42.416 16.268 42.184Z"/>
<path d="M17.816 39.984L17.816 42.84L18.176 42.84L18.176 40.548L18.184 40.548L19.676 42.84L20.092 42.84L20.092 39.984L19.732 39.984L19.732 42.3L19.724 42.3L18.22 39.984L17.816 39.984Z"/>
<path d="M20.9 41.808C20.9 41.6827 20.9167 41.5713 20.95 41.474C20.9833 41.3767 21.0293 41.2947 21.088 41.228C21.1467 41.1613 21.2153 41.1107 21.294 41.076C21.3727 41.0413 21.456 41.024 21.544 41.024C21.632 41.024 21.7153 41.0413 21.794 41.076C21.8727 41.1107 21.9413 41.1613 22 41.228C22.0587 41.2947 22.1047 41.3767 22.138 41.474C22.1713 41.5713 22.188 41.6827 22.188 41.808C22.188 41.9333 22.1713 42.0447 22.138 42.142C22.1047 42.2393 22.0587 42.3207 22 42.386C21.9413 42.4513 21.8727 42.5013 21.794 42.536C21.7153 42.5707 21.632 42.588 21.544 42.588C21.456 42.588 21.3727 42.5707 21.294 42.536C21.2153 42.5013 21.1467 42.4513 21.088 42.386C21.0293 42.3207 20.9833 42.2393 20.95 42.142C20.9167 42.0447 20.9 41.9333 20.9 41.808ZM20.54 41.808C20.54 41.96 20.5613 42.1013 20.604 42.232C20.6467 42.3627 20.7107 42.4767 20.796 42.574C20.8813 42.6713 20.9867 42.7473 21.112 42.802C21.2373 42.8567 21.3813 42.884 21.544 42.884C21.7093 42.884 21.854 42.8567 21.978 42.802C22.102 42.7473 22.2067 42.6713 22.292 42.574C22.3773 42.4767 22.4413 42.3627 22.484 42.232C22.5267 42.1013 22.548 41.96 22.548 41.808C22.548 41.656 22.5267 41.514 22.484 41.382C22.4413 41.25 22.3773 41.1353 22.292 41.038C22.2067 40.9407 22.102 40.864 21.978 40.808C21.854 40.752 21.7093 40.724 21.544 40.724C21.3813 40.724 21.2373 40.752 21.112 40.808C20.9867 40.864 20.8813 40.9407 20.796 41.038C20.7107 41.1353 20.6467 41.25 20.604 41.382C20.5613 41.514 20.54 41.656 20.54 41.808Z"/>
<path d="M24.66 42.84L24.66 40.772L24.32 40.772L24.32 41.94C24.32 42.0333 24.3073 42.1193 24.282 42.198C24.2567 42.2767 24.2187 42.3453 24.168 42.404C24.1173 42.4627 24.054 42.508 23.978 42.54C23.902 42.572 23.812 42.588 23.708 42.588C23.5773 42.588 23.4747 42.5507 23.4 42.476C23.3253 42.4013 23.288 42.3 23.288 42.172L23.288 40.772L22.948 40.772L22.948 42.132C22.948 42.244 22.9593 42.346 22.982 42.438C23.0047 42.53 23.044 42.6093 23.1 42.676C23.156 42.7427 23.2293 42.794 23.32 42.83C23.4107 42.866 23.524 42.884 23.66 42.884C23.812 42.884 23.944 42.854 24.056 42.794C24.168 42.734 24.26 42.64 24.332 42.512L24.34 42.512L24.34 42.84L24.66 42.84Z"/>
<path d="M25.172 40.772L25.172 42.84L25.512 42.84L25.512 41.672C25.512 41.5787 25.5247 41.4927 25.55 41.414C25.5753 41.3353 25.6133 41.2667 25.664 41.208C25.7147 41.1493 25.778 41.104 25.854 41.072C25.93 41.04 26.02 41.024 26.124 41.024C26.2547 41.024 26.3573 41.0613 26.432 41.136C26.5067 41.2107 26.544 41.312 26.544 41.44L26.544 42.84L26.884 42.84L26.884 41.48C26.884 41.368 26.8727 41.266 26.85 41.174C26.8273 41.082 26.788 41.0027 26.732 40.936C26.676 40.8693 26.6027 40.8173 26.512 40.78C26.4213 40.7427 26.308 40.724 26.172 40.724C25.8653 40.724 25.6413 40.8493 25.5 41.1L25.492 41.1L25.492 40.772L25.172 40.772Z"/>
<path d="M28.944 41.352L28.944 40.304L29.688 40.304C29.904 40.304 30.062 40.3487 30.162 40.438C30.262 40.5273 30.312 40.6573 30.312 40.828C30.312 40.9987 30.262 41.1293 30.162 41.22C30.062 41.3107 29.904 41.3547 29.688 41.352L28.944 41.352ZM28.564 39.984L28.564 42.84L28.944 42.84L28.944 41.672L29.816 41.672C30.104 41.6747 30.322 41.6013 30.47 41.452C30.618 41.3027 30.692 41.0947 30.692 40.828C30.692 40.5613 30.618 40.354 30.47 40.206C30.322 40.058 30.104 39.984 29.816 39.984L28.564 39.984Z"/>
<path d="M31.088 40.772L31.088 42.84L31.428 42.84L31.428 41.92C31.428 41.7867 31.4413 41.6687 31.468 41.566C31.4947 41.4633 31.5373 41.376 31.596 41.304C31.6547 41.232 31.732 41.1773 31.828 41.14C31.924 41.1027 32.04 41.084 32.176 41.084L32.176 40.724C31.992 40.7187 31.84 40.756 31.72 40.836C31.6 40.916 31.4987 41.04 31.416 41.208L31.408 41.208L31.408 40.772L31.088 40.772Z"/>
<path d="M32.608 41.808C32.608 41.6827 32.6247 41.5713 32.658 41.474C32.6913 41.3767 32.7373 41.2947 32.796 41.228C32.8547 41.1613 32.9233 41.1107 33.002 41.076C33.0807 41.0413 33.164 41.024 33.252 41.024C33.34 41.024 33.4233 41.0413 33.502 41.076C33.5807 41.1107 33.6493 41.1613 33.708 41.228C33.7667 41.2947 33.8127 41.3767 33.846 41.474C33.8793 41.5713 33.896 41.6827 33.896 41.808C33.896 41.9333 33.8793 42.0447 33.846 42.142C33.8127 42.2393 33.7667 42.3207 33.708 42.386C33.6493 42.4513 33.5807 42.5013 33.502 42.536C33.4233 42.5707 33.34 42.588 33.252 42.588C33.164 42.588 33.0807 42.5707 33.002 42.536C32.9233 42.5013 32.8547 42.4513 32.796 42.386C32.7373 42.3207 32.6913 42.2393 32.658 42.142C32.6247 42.0447 32.608 41.9333 32.608 41.808ZM32.248 41.808C32.248 41.96 32.2693 42.1013 32.312 42.232C32.3547 42.3627 32.4187 42.4767 32.504 42.574C32.5893 42.6713 32.6947 42.7473 32.82 42.802C32.9453 42.8567 33.0893 42.884 33.252 42.884C33.4173 42.884 33.562 42.8567 33.686 42.802C33.81 42.7473 33.9147 42.6713 34 42.574C34.0853 42.4767 34.1493 42.3627 34.192 42.232C34.2347 42.1013 34.256 41.96 34.256 41.808C34.256 41.656 34.2347 41.514 34.192 41.382C34.1493 41.25 34.0853 41.1353 34 41.038C33.9147 40.9407 33.81 40.864 33.686 40.808C33.562 40.752 33.4173 40.724 33.252 40.724C33.0893 40.724 32.9453 40.752 32.82 40.808C32.6947 40.864 32.5893 40.9407 32.504 41.038C32.4187 41.1353 32.3547 41.25 32.312 41.382C32.2693 41.514 32.248 41.656 32.248 41.808Z"/>
<path d="M35.016 40.4L35.016 39.984L34.676 39.984L34.676 40.4L35.016 40.4ZM35.016 43.1L35.016 40.772L34.676 40.772L34.676 43.044C34.676 43.1507 34.6627 43.2247 34.636 43.266C34.6093 43.3073 34.5587 43.328 34.484 43.328L34.412 43.328C34.4013 43.328 34.3913 43.3273 34.382 43.326C34.3727 43.3247 34.3613 43.3227 34.348 43.32L34.348 43.612C34.4013 43.6227 34.4587 43.628 34.52 43.628C34.672 43.628 34.7927 43.586 34.882 43.502C34.9713 43.418 35.016 43.284 35.016 43.1Z"/>
<path d="M36.98 41.608L35.792 41.608C35.7973 41.528 35.8147 41.4527 35.844 41.382C35.8733 41.3113 35.9133 41.2493 35.964 41.196C36.0147 41.1427 36.0753 41.1007 36.146 41.07C36.2167 41.0393 36.296 41.024 36.384 41.024C36.4693 41.024 36.5473 41.0393 36.618 41.07C36.6887 41.1007 36.75 41.142 36.802 41.194C36.854 41.246 36.8953 41.308 36.926 41.38C36.9567 41.452 36.9747 41.528 36.98 41.608ZM37.308 42.184L36.972 42.184C36.9427 42.32 36.882 42.4213 36.79 42.488C36.698 42.5547 36.58 42.588 36.436 42.588C36.324 42.588 36.2267 42.5693 36.144 42.532C36.0613 42.4947 35.9933 42.4447 35.94 42.382C35.8867 42.3193 35.848 42.2473 35.824 42.166C35.8 42.0847 35.7893 41.9987 35.792 41.908L37.34 41.908C37.3453 41.7827 37.334 41.6507 37.306 41.512C37.278 41.3733 37.2273 41.2453 37.154 41.128C37.0807 41.0107 36.9833 40.914 36.862 40.838C36.7407 40.762 36.588 40.724 36.404 40.724C36.2627 40.724 36.1327 40.7507 36.014 40.804C35.8953 40.8573 35.7927 40.932 35.706 41.028C35.6193 41.124 35.552 41.2373 35.504 41.368C35.456 41.4987 35.432 41.6427 35.432 41.8C35.4373 41.9573 35.4607 42.1027 35.502 42.236C35.5433 42.3693 35.6053 42.484 35.688 42.58C35.7707 42.676 35.8727 42.7507 35.994 42.804C36.1153 42.8573 36.2587 42.884 36.424 42.884C36.6587 42.884 36.8533 42.8253 37.008 42.708C37.1627 42.5907 37.2627 42.416 37.308 42.184Z"/>
<path d="M39.096 41.436L39.448 41.436C39.4347 41.3133 39.4027 41.2073 39.352 41.118C39.3013 41.0287 39.2367 40.9547 39.158 40.896C39.0793 40.8373 38.9887 40.794 38.886 40.766C38.7833 40.738 38.6733 40.724 38.556 40.724C38.3933 40.724 38.2507 40.7527 38.128 40.81C38.0053 40.8673 37.9033 40.946 37.822 41.046C37.7407 41.146 37.68 41.2633 37.64 41.398C37.6 41.5327 37.58 41.6773 37.58 41.832C37.58 41.9867 37.6007 42.1287 37.642 42.258C37.6833 42.3873 37.7447 42.4987 37.826 42.592C37.9073 42.6853 38.0087 42.7573 38.13 42.808C38.2513 42.8587 38.3907 42.884 38.548 42.884C38.812 42.884 39.0207 42.8147 39.174 42.676C39.3273 42.5373 39.4227 42.34 39.46 42.084L39.112 42.084C39.0907 42.244 39.0327 42.368 38.938 42.456C38.8433 42.544 38.712 42.588 38.544 42.588C38.4373 42.588 38.3453 42.5667 38.268 42.524C38.1907 42.4813 38.128 42.4247 38.08 42.354C38.032 42.2833 37.9967 42.2027 37.974 42.112C37.9513 42.0213 37.94 41.928 37.94 41.832C37.94 41.728 37.9507 41.6273 37.972 41.53C37.9933 41.4327 38.0287 41.3467 38.078 41.272C38.1273 41.1973 38.1933 41.1373 38.276 41.092C38.3587 41.0467 38.4613 41.024 38.584 41.024C38.728 41.024 38.8427 41.06 38.928 41.132C39.0133 41.204 39.0693 41.3053 39.096 41.436Z"/>
<path d="M40.312 40.772L40.312 40.152L39.972 40.152L39.972 40.772L39.62 40.772L39.62 41.072L39.972 41.072L39.972 42.388C39.972 42.484 39.9813 42.5613 40 42.62C40.0187 42.6787 40.0473 42.724 40.086 42.756C40.1247 42.788 40.1753 42.81 40.238 42.822C40.3007 42.834 40.376 42.84 40.464 42.84L40.724 42.84L40.724 42.54L40.568 42.54C40.5147 42.54 40.4713 42.538 40.438 42.534C40.4047 42.53 40.3787 42.5213 40.36 42.508C40.3413 42.4947 40.3287 42.476 40.322 42.452C40.3153 42.428 40.312 42.396 40.312 42.356L40.312 41.072L40.724 41.072L40.724 40.772L40.312 40.772Z"/>
</g>
</g>
</svg>
