<?xml version="1.0" encoding="UTF-8" standalone="no"?>
<!DOCTYPE svg PUBLIC "-//W3C//DTD SVG 1.1//EN" "http://www.w3.org/Graphics/SVG/1.1/DTD/svg11.dtd">
<!-- Created with Vectornator (http://vectornator.io/) -->
<svg height="100%" stroke-miterlimit="10" style="fill-rule:nonzero;clip-rule:evenodd;stroke-linecap:round;stroke-linejoin:round;" version="1.1" viewBox="0 0 50000 43000" width="100%" xml:space="preserve" xmlns="http://www.w3.org/2000/svg" xmlns:xlink="http://www.w3.org/1999/xlink">
<defs/>
<clipPath id="ArtboardFrame">
<rect height="43000" width="50000" x="0" y="0"/>
</clipPath>
<g clip-path="url(#ArtboardFrame)" id="Untitled">
<path d="M2859.84 13457.6L23298.7 2477.55C23809 2203.44 24296 2029.73 24838.5 2015.85C25377.5 2002.06 25952.4 2147.76 26634.1 2512.22L47104.9 13456.2C47538.1 13687.7 47820.1 13990.3 47973.6 14316.9C48072 14526.3 48117.1 14743.9 48114.7 14959.4C48112.2 15173.6 48062.7 15382.8 47971.8 15577.1C47822.5 15896.4 47560.4 16173.8 47214.9 16359.5L46035.6 16993L47104.9 17567.5C47556.8 17810.2 47851.7 18124.7 48009.4 18460.4C48105.1 18664 48150.5 18874.4 48150.1 19082.3C48149.6 19292.8 48102.6 19497.3 48013.6 19686.5C47871.3 19989.5 47621.9 20252.1 47286.4 20432.3L46035.6 21104.3L47104.9 21678.8C47528.7 21906.4 47804.7 22203.6 47955.9 22525.3C48055.8 22738 48100.7 22959.1 48097 23177.8C48093.3 23395.1 48042.1 23607.1 47949.9 23803.2C47796.4 24129.8 47528.2 24413.7 47179 24601.3L46035.6 25215.6L47104.9 25790.1C47560.8 26035 47858.4 26351.9 48017.1 26689.5C48112.2 26891.8 48157.6 27100.9 48157.5 27307.8C48157.5 27516.6 48111 27719.7 48022.5 27908C47881.6 28207.9 47634.6 28467.9 47300.9 28647.1L26668.7 39731C26179 39994.1 25576.4 40135.8 24936.6 40114.5C24355.9 40095.2 23741.6 39942.7 23150.6 39625.9L2862.48 28752.4C2423.97 28517.4 2138.26 28211.3 1983.55 27882.1C1885.85 27674.2 1840.65 27458.6 1842.51 27245.5C1844.37 27032 1893.23 26824 1983.6 26631.3C2130.89 26317.2 2388.93 26044.4 2731.24 25860.6L3931.83 25215.6L2862.48 24641.1C2427.73 24407.6 2144.53 24103.6 1990.73 23776.3C1892.37 23567.1 1847.24 23350.3 1849.58 23136.2C1851.94 22921 1901.47 22711.6 1992.39 22518.2C2141.29 22201.4 2401.56 21926.4 2745.19 21741.8L3931.85 21104.3L2862.48 20529.8C2442.18 20304 2168.58 20009.1 2018.24 19689.2C1917.74 19475.4 1873.06 19252.7 1877.2 19032.2C1881.28 18814.6 1933.06 18602.1 2025.65 18405C2180.74 18075.1 2451.6 17788.2 2802.73 17599.6L3931.83 16993L2862.48 16418.5C2455.7 16200 2190.92 15913.6 2043.94 15600.9C1941.56 15383.1 1897.45 15155.6 1903.44 14930.3C1909.29 14709.8 1963.27 14493.8 2057.4 14293.5C2218.93 13949.8 2501.07 13650.3 2859.84 13457.6ZM45133.9 25700L26668.7 35619.7C26202.2 35870.4 25672.2 36041.8 25021.9 36024.5C24392.3 36007.7 23656.7 35812 22766.1 35333.6L4833.48 25700L3093.34 26634.8C2911.07 26732.7 2778.23 26868.2 2707.8 27018.4C2672.32 27094.1 2653.16 27173.3 2652.47 27252.3C2651.77 27331.5 2669.5 27413.6 2707.75 27495C2787.65 27665 2954.21 27833.3 3224.58 27978.2L23512.7 38851.7C23993.1 39109.1 24490.3 39233 24958.8 39248.6C25464.4 39265.4 25932.9 39157.6 26306.6 38956.8L46938.8 27872.9C47111.9 27779.9 47234.6 27656.5 47298.4 27520.9C47330.6 27452.2 47347.6 27380 47347.6 27307.8C47347.6 27233.4 47329.9 27155.4 47292.9 27076.6C47208.9 26897.9 47030.9 26719.1 46742.8 26564.3L45133.9 25700ZM45133.9 21588.7L27127.2 31262.1C26269.5 31722.9 25550.2 31910.8 24851.3 31883.6C24154.7 31856.6 23501 31617.1 22766.1 31222.3L4833.5 21588.7L3107.3 22516C2923.27 22614.9 2788.39 22752.5 2716.58 22905.3C2680.2 22982.7 2660.4 23063.3 2659.54 23143C2658.66 23223.9 2676.37 23307.2 2714.92 23389.2C2794.01 23557.5 2958.16 23723.8 3224.58 23866.9L23128.2 34559.4C23902.2 34975.2 24523.3 35144.8 25041 35158.6C25538 35171.8 25946 35039.2 26306.6 34845.5L46816.9 23827.1C47007.2 23724.9 47149.2 23578.9 47225.7 23416.1C47264.2 23334.1 47285.6 23248.7 47287 23164.2C47288.4 23081 47270.8 22995.7 47231.7 22912.4C47155.2 22749.8 46998.1 22590.2 46742.8 22453C46742.8 22453 45133.9 21588.7 45133.9 21588.7ZM45133.9 17477.4L27113.1 27158.4C26382.2 27551 25753.9 27781.3 25065 27792.2C24381.8 27803 23666.8 27594.9 22766.1 27111L4833.48 17477.4L3164.84 18373.8C2972.44 18477.1 2827.96 18626 2749.85 18792.2C2710.65 18875.6 2688.77 18962.8 2687.16 19049.2C2685.59 19132.7 2703.11 19218.4 2742.44 19302.1C2817.98 19462.8 2972.86 19620.4 3224.58 19755.6L23128.2 30448.1C23763.4 30789.3 24316.1 30995.8 24879.9 31017.7C25441.3 31039.5 26036.5 30879.3 26765.1 30487.9L46924.3 19658.1C47099.4 19564.1 47224.3 19438.1 47289.4 19299.4C47322.5 19229.1 47339.9 19155.6 47340.1 19082.3C47340.3 19006.3 47322.6 18926.9 47285.2 18847.5C47202.1 18670.7 47026.8 18494.3 46742.8 18341.7C46742.8 18341.7 45133.9 17477.4 45133.9 17477.4ZM23660.8 3251.78L3221.95 14231.8C3020.99 14339.8 2866.28 14500.5 2781.59 14680.6C2739.74 14769.7 2715.83 14862.5 2713.4 14954.1C2711.1 15040.9 2728.28 15129 2768.13 15213.8C2840.21 15367.1 2986.56 15516.4 3224.58 15644.3L23128.2 26336.8C23906.4 26754.8 24505.4 26935 25055.5 26926.3C25600 26917.6 26124.7 26720.6 26751 26384.2L46852.8 15585.2C47038.3 15485.6 47174.8 15345.6 47247.6 15189.9C47284 15112.2 47303.8 15030.6 47304.7 14949.2C47305.6 14868.9 47287.9 14786 47249.4 14704C47170.9 14536.9 47007.8 14372.1 46742.8 14230.4L26272 3286.45C25717.8 2990.16 25266.2 2871.32 24857.6 2881.77C24452.5 2892.14 24070.9 3031.49 23660.8 3251.78Z" fill="#000000" fill-rule="evenodd" opacity="1" stroke="none"/>
<g fill="#000000" opacity="1" stroke="none">
<path d="M3.82 50013L4.2 50013C4.17867 50012.9 4.13333 50012.7 4.064 50012.6C3.99467 50012.5 3.908 50012.4 3.804 50012.3C3.7 50012.2 3.58133 50012.2 3.448 50012.1C3.31467 50012.1 3.17333 50012.1 3.024 50012.1C2.80533 50012.1 2.61133 50012.1 2.442 50012.2C2.27267 50012.3 2.13133 50012.4 2.018 50012.5C1.90467 50012.7 1.81867 50012.8 1.76 50013C1.70133 50013.2 1.672 50013.4 1.672 50013.6C1.672 50013.8 1.69933 50014 1.754 50014.2C1.80867 50014.3 1.89067 50014.5 2 50014.6C2.10933 50014.8 2.24667 50014.9 2.412 50014.9C2.57733 50015 2.77067 50015.1 2.992 50015.1C3.35733 50015.1 3.64533 50015 3.856 50014.8C4.06667 50014.6 4.19067 50014.3 4.228 50013.9L3.848 50013.9C3.84 50014 3.816 50014.2 3.776 50014.3C3.736 50014.4 3.68067 50014.4 3.61 50014.5C3.53933 50014.6 3.45533 50014.6 3.358 50014.7C3.26067 50014.7 3.14933 50014.7 3.024 50014.7C2.85333 50014.7 2.70667 50014.7 2.584 50014.7C2.46133 50014.6 2.36067 50014.5 2.282 50014.4C2.20333 50014.3 2.14533 50014.2 2.108 50014C2.07067 50013.9 2.052 50013.7 2.052 50013.6C2.052 50013.4 2.07067 50013.3 2.108 50013.1C2.14533 50013 2.20333 50012.9 2.282 50012.8C2.36067 50012.6 2.46067 50012.6 2.582 50012.5C2.70333 50012.4 2.84933 50012.4 3.02 50012.4C3.22 50012.4 3.39267 50012.4 3.538 50012.5C3.68333 50012.6 3.77733 50012.8 3.82 50013Z"/>
<path d="M4.632 50012.9L4.632 50015L4.972 50015L4.972 50014.1C4.972 50013.9 4.98533 50013.8 5.012 50013.7C5.03867 50013.6 5.08133 50013.5 5.14 50013.5C5.19867 50013.4 5.276 50013.3 5.372 50013.3C5.468 50013.3 5.584 50013.2 5.72 50013.2L5.72 50012.9C5.536 50012.9 5.384 50012.9 5.264 50013C5.144 50013.1 5.04267 50013.2 4.96 50013.4L4.952 50013.4L4.952 50012.9L4.632 50012.9Z"/>
<path d="M7.34 50013.8L6.152 50013.8C6.15733 50013.7 6.17467 50013.6 6.204 50013.5C6.23333 50013.5 6.27333 50013.4 6.324 50013.4C6.37467 50013.3 6.43533 50013.3 6.506 50013.2C6.57667 50013.2 6.656 50013.2 6.744 50013.2C6.82933 50013.2 6.90733 50013.2 6.978 50013.2C7.04867 50013.3 7.11 50013.3 7.162 50013.4C7.214 50013.4 7.25533 50013.5 7.286 50013.5C7.31667 50013.6 7.33467 50013.7 7.34 50013.8ZM7.668 50014.3L7.332 50014.3C7.30267 50014.5 7.242 50014.6 7.15 50014.6C7.058 50014.7 6.94 50014.7 6.796 50014.7C6.684 50014.7 6.58667 50014.7 6.504 50014.7C6.42133 50014.7 6.35333 50014.6 6.3 50014.5C6.24667 50014.5 6.208 50014.4 6.184 50014.3C6.16 50014.2 6.14933 50014.2 6.152 50014.1L7.7 50014.1C7.70533 50013.9 7.694 50013.8 7.666 50013.7C7.638 50013.5 7.58733 50013.4 7.514 50013.3C7.44067 50013.2 7.34333 50013.1 7.222 50013C7.10067 50012.9 6.948 50012.9 6.764 50012.9C6.62267 50012.9 6.49267 50012.9 6.374 50013C6.25533 50013 6.15267 50013.1 6.066 50013.2C5.97933 50013.3 5.912 50013.4 5.864 50013.5C5.816 50013.7 5.792 50013.8 5.792 50014C5.79733 50014.1 5.82067 50014.3 5.862 50014.4C5.90333 50014.5 5.96533 50014.6 6.048 50014.7C6.13067 50014.8 6.23267 50014.9 6.354 50015C6.47533 50015 6.61867 50015 6.784 50015C7.01867 50015 7.21333 50015 7.368 50014.9C7.52267 50014.8 7.62267 50014.6 7.668 50014.3Z"/>
<path d="M9.884 50015C9.82533 50015 9.744 50015 9.64 50015C9.552 50015 9.482 50015 9.43 50015C9.378 50014.9 9.352 50014.8 9.352 50014.7C9.25867 50014.8 9.15 50014.9 9.026 50015C8.902 50015 8.768 50015 8.624 50015C8.53067 50015 8.442 50015 8.358 50015C8.274 50015 8.20133 50015 8.14 50014.9C8.07867 50014.9 8.03 50014.8 7.994 50014.7C7.958 50014.7 7.94 50014.6 7.94 50014.5C7.94 50014.4 7.96 50014.3 8 50014.2C8.04 50014.1 8.09267 50014 8.158 50014C8.22333 50014 8.298 50013.9 8.382 50013.9C8.466 50013.9 8.552 50013.8 8.64 50013.8C8.73333 50013.8 8.822 50013.8 8.906 50013.8C8.99 50013.8 9.064 50013.8 9.128 50013.8C9.192 50013.7 9.24267 50013.7 9.28 50013.7C9.31733 50013.6 9.336 50013.6 9.336 50013.5C9.336 50013.5 9.322 50013.4 9.294 50013.3C9.266 50013.3 9.23 50013.3 9.186 50013.2C9.142 50013.2 9.09267 50013.2 9.038 50013.2C8.98333 50013.2 8.92933 50013.2 8.876 50013.2C8.732 50013.2 8.612 50013.2 8.516 50013.3C8.42 50013.3 8.368 50013.4 8.36 50013.6L8.02 50013.6C8.02533 50013.4 8.052 50013.3 8.1 50013.3C8.148 50013.2 8.212 50013.1 8.292 50013C8.372 50013 8.46333 50012.9 8.566 50012.9C8.66867 50012.9 8.77867 50012.9 8.896 50012.9C8.98933 50012.9 9.082 50012.9 9.174 50012.9C9.266 50012.9 9.34933 50012.9 9.424 50013C9.49867 50013 9.55867 50013.1 9.604 50013.2C9.64933 50013.2 9.672 50013.3 9.672 50013.5L9.672 50014.5C9.672 50014.6 9.67667 50014.7 9.686 50014.7C9.69533 50014.7 9.72667 50014.7 9.78 50014.7C9.80933 50014.7 9.844 50014.7 9.884 50014.7L9.884 50015ZM9.332 50013.9C9.28933 50014 9.23333 50014 9.164 50014C9.09467 50014 9.022 50014 8.946 50014C8.87 50014 8.79333 50014.1 8.716 50014.1C8.63867 50014.1 8.56933 50014.1 8.508 50014.1C8.44667 50014.2 8.39667 50014.2 8.358 50014.2C8.31933 50014.3 8.3 50014.4 8.3 50014.4C8.3 50014.5 8.31133 50014.5 8.334 50014.6C8.35667 50014.6 8.386 50014.7 8.422 50014.7C8.458 50014.7 8.5 50014.7 8.548 50014.7C8.596 50014.7 8.64667 50014.7 8.7 50014.7C8.812 50014.7 8.908 50014.7 8.988 50014.7C9.068 50014.7 9.13333 50014.6 9.184 50014.6C9.23467 50014.5 9.272 50014.5 9.296 50014.4C9.32 50014.4 9.332 50014.3 9.332 50014.3L9.332 50013.9Z"/>
<path d="M10.672 50012.9L10.672 50012.3L10.332 50012.3L10.332 50012.9L9.98 50012.9L9.98 50013.2L10.332 50013.2L10.332 50014.5C10.332 50014.6 10.3413 50014.7 10.36 50014.8C10.3787 50014.8 10.4073 50014.9 10.446 50014.9C10.4847 50014.9 10.5353 50015 10.598 50015C10.6607 50015 10.736 50015 10.824 50015L11.084 50015L11.084 50014.7L10.928 50014.7C10.8747 50014.7 10.8313 50014.7 10.798 50014.7C10.7647 50014.7 10.7387 50014.7 10.72 50014.7C10.7013 50014.7 10.6887 50014.6 10.682 50014.6C10.6753 50014.6 10.672 50014.6 10.672 50014.5L10.672 50013.2L11.084 50013.2L11.084 50012.9L10.672 50012.9Z"/>
<path d="M12.896 50013.8L11.708 50013.8C11.7133 50013.7 11.7307 50013.6 11.76 50013.5C11.7893 50013.5 11.8293 50013.4 11.88 50013.4C11.9307 50013.3 11.9913 50013.3 12.062 50013.2C12.1327 50013.2 12.212 50013.2 12.3 50013.2C12.3853 50013.2 12.4633 50013.2 12.534 50013.2C12.6047 50013.3 12.666 50013.3 12.718 50013.4C12.77 50013.4 12.8113 50013.5 12.842 50013.5C12.8727 50013.6 12.8907 50013.7 12.896 50013.8ZM13.224 50014.3L12.888 50014.3C12.8587 50014.5 12.798 50014.6 12.706 50014.6C12.614 50014.7 12.496 50014.7 12.352 50014.7C12.24 50014.7 12.1427 50014.7 12.06 50014.7C11.9773 50014.7 11.9093 50014.6 11.856 50014.5C11.8027 50014.5 11.764 50014.4 11.74 50014.3C11.716 50014.2 11.7053 50014.2 11.708 50014.1L13.256 50014.1C13.2613 50013.9 13.25 50013.8 13.222 50013.7C13.194 50013.5 13.1433 50013.4 13.07 50013.3C12.9967 50013.2 12.8993 50013.1 12.778 50013C12.6567 50012.9 12.504 50012.9 12.32 50012.9C12.1787 50012.9 12.0487 50012.9 11.93 50013C11.8113 50013 11.7087 50013.1 11.622 50013.2C11.5353 50013.3 11.468 50013.4 11.42 50013.5C11.372 50013.7 11.348 50013.8 11.348 50014C11.3533 50014.1 11.3767 50014.3 11.418 50014.4C11.4593 50014.5 11.5213 50014.6 11.604 50014.7C11.6867 50014.8 11.7887 50014.9 11.91 50015C12.0313 50015 12.1747 50015 12.34 50015C12.5747 50015 12.7693 50015 12.924 50014.9C13.0787 50014.8 13.1787 50014.6 13.224 50014.3Z"/>
<path d="M13.856 50014C13.856 50013.9 13.8667 50013.8 13.888 50013.7C13.9093 50013.6 13.944 50013.5 13.992 50013.4C14.04 50013.4 14.104 50013.3 14.184 50013.3C14.264 50013.2 14.3613 50013.2 14.476 50013.2C14.5933 50013.2 14.6933 50013.2 14.776 50013.2C14.8587 50013.3 14.926 50013.4 14.978 50013.4C15.03 50013.5 15.068 50013.6 15.092 50013.7C15.116 50013.8 15.128 50013.9 15.128 50014C15.128 50014.1 15.1167 50014.2 15.094 50014.3C15.0713 50014.3 15.0347 50014.4 14.984 50014.5C14.9333 50014.6 14.868 50014.6 14.788 50014.7C14.708 50014.7 14.6107 50014.7 14.496 50014.7C14.3867 50014.7 14.2913 50014.7 14.21 50014.7C14.1287 50014.6 14.062 50014.6 14.01 50014.5C13.958 50014.4 13.9193 50014.4 13.894 50014.3C13.8687 50014.2 13.856 50014.1 13.856 50014ZM15.456 50015L15.456 50012.1L15.116 50012.1L15.116 50013.2L15.108 50013.2C15.0707 50013.1 15.0247 50013.1 14.97 50013.1C14.9153 50013 14.8573 50013 14.796 50013C14.7347 50012.9 14.6733 50012.9 14.612 50012.9C14.5507 50012.9 14.4933 50012.9 14.44 50012.9C14.2827 50012.9 14.1447 50012.9 14.026 50013C13.9073 50013 13.8087 50013.1 13.73 50013.2C13.6513 50013.3 13.5927 50013.4 13.554 50013.5C13.5153 50013.7 13.496 50013.8 13.496 50014C13.496 50014.1 13.516 50014.2 13.556 50014.4C13.596 50014.5 13.6553 50014.6 13.734 50014.7C13.8127 50014.8 13.9113 50014.9 14.03 50015C14.1487 50015 14.288 50015 14.448 50015C14.592 50015 14.724 50015 14.844 50015C14.964 50014.9 15.052 50014.8 15.108 50014.7L15.116 50014.7L15.116 50015L15.456 50015Z"/>
<path d="M17.104 50012.1L17.104 50015L17.444 50015L17.444 50014.7L17.452 50014.7C17.4893 50014.8 17.5353 50014.8 17.59 50014.9C17.6447 50014.9 17.7027 50015 17.764 50015C17.8253 50015 17.8873 50015 17.95 50015C18.0127 50015 18.0693 50015 18.12 50015C18.2773 50015 18.4153 50015 18.534 50015C18.6527 50014.9 18.7513 50014.8 18.83 50014.7C18.9087 50014.6 18.9673 50014.5 19.006 50014.4C19.0447 50014.3 19.064 50014.1 19.064 50014C19.064 50013.8 19.044 50013.7 19.004 50013.6C18.964 50013.4 18.9047 50013.3 18.826 50013.2C18.7473 50013.1 18.6487 50013 18.53 50013C18.4113 50012.9 18.272 50012.9 18.112 50012.9C17.968 50012.9 17.836 50012.9 17.716 50013C17.596 50013 17.508 50013.1 17.452 50013.2L17.444 50013.2L17.444 50012.1L17.104 50012.1ZM18.704 50013.9C18.704 50014 18.6933 50014.1 18.672 50014.2C18.6507 50014.3 18.616 50014.4 18.568 50014.5C18.52 50014.6 18.4567 50014.6 18.378 50014.7C18.2993 50014.7 18.2013 50014.7 18.084 50014.7C17.9667 50014.7 17.8667 50014.7 17.784 50014.7C17.7013 50014.6 17.634 50014.6 17.582 50014.5C17.53 50014.4 17.492 50014.4 17.468 50014.3C17.444 50014.2 17.432 50014.1 17.432 50014C17.432 50013.9 17.4433 50013.8 17.466 50013.7C17.4887 50013.6 17.5253 50013.5 17.576 50013.4C17.6267 50013.4 17.692 50013.3 17.772 50013.3C17.852 50013.2 17.9493 50013.2 18.064 50013.2C18.1733 50013.2 18.2687 50013.2 18.35 50013.2C18.4313 50013.3 18.498 50013.3 18.55 50013.4C18.602 50013.5 18.6407 50013.6 18.666 50013.7C18.6913 50013.8 18.704 50013.9 18.704 50013.9Z"/>
<path d="M20.276 50015.3C20.236 50015.4 20.1967 50015.5 20.158 50015.5C20.1193 50015.6 20.0767 50015.7 20.03 50015.7C19.9833 50015.7 19.9313 50015.8 19.874 50015.8C19.8167 50015.8 19.7507 50015.8 19.676 50015.8C19.636 50015.8 19.596 50015.8 19.556 50015.8C19.516 50015.8 19.4773 50015.8 19.44 50015.8L19.44 50015.5C19.4693 50015.5 19.5033 50015.5 19.542 50015.5C19.5807 50015.5 19.6133 50015.5 19.64 50015.5C19.7093 50015.5 19.7673 50015.5 19.814 50015.5C19.8607 50015.4 19.896 50015.4 19.92 50015.3L20.06 50015L19.24 50012.9L19.624 50012.9L20.228 50014.6L20.236 50014.6L20.816 50012.9L21.176 50012.9L20.276 50015.3Z"/>
<path d="M22.852 50013.6C22.852 50013.4 22.8707 50013.3 22.908 50013.1C22.9453 50013 23.004 50012.9 23.084 50012.8C23.164 50012.7 23.2667 50012.6 23.392 50012.5C23.5173 50012.4 23.6667 50012.4 23.84 50012.4C24.0133 50012.4 24.1627 50012.4 24.288 50012.5C24.4133 50012.6 24.516 50012.7 24.596 50012.8C24.676 50012.9 24.7347 50013 24.772 50013.1C24.8093 50013.3 24.828 50013.4 24.828 50013.6C24.828 50013.7 24.8093 50013.9 24.772 50014C24.7347 50014.1 24.676 50014.3 24.596 50014.4C24.516 50014.5 24.4133 50014.6 24.288 50014.6C24.1627 50014.7 24.0133 50014.7 23.84 50014.7C23.6667 50014.7 23.5173 50014.7 23.392 50014.6C23.2667 50014.6 23.164 50014.5 23.084 50014.4C23.004 50014.3 22.9453 50014.1 22.908 50014C22.8707 50013.9 22.852 50013.7 22.852 50013.6ZM22.472 50013.6C22.472 50013.8 22.5007 50014 22.558 50014.1C22.6153 50014.3 22.7013 50014.5 22.816 50014.6C22.9307 50014.8 23.0733 50014.9 23.244 50014.9C23.4147 50015 23.6133 50015.1 23.84 50015.1C24.0667 50015.1 24.2653 50015 24.436 50014.9C24.6067 50014.9 24.7493 50014.8 24.864 50014.6C24.9787 50014.5 25.0647 50014.3 25.122 50014.1C25.1793 50014 25.208 50013.8 25.208 50013.6C25.208 50013.4 25.1793 50013.2 25.122 50013C25.0647 50012.8 24.9787 50012.7 24.864 50012.5C24.7493 50012.4 24.6067 50012.3 24.436 50012.2C24.2653 50012.1 24.0667 50012.1 23.84 50012.1C23.6133 50012.1 23.4147 50012.1 23.244 50012.2C23.0733 50012.3 22.9307 50012.4 22.816 50012.5C22.7013 50012.7 22.6153 50012.8 22.558 50013C22.5007 50013.2 22.472 50013.4 22.472 50013.6Z"/>
<path d="M25.636 50012.1L25.636 50015L25.976 50015L25.976 50012.1L25.636 50012.1Z"/>
<path d="M27.94 50013.8L26.752 50013.8C26.7573 50013.7 26.7747 50013.6 26.804 50013.5C26.8333 50013.5 26.8733 50013.4 26.924 50013.4C26.9747 50013.3 27.0353 50013.3 27.106 50013.2C27.1767 50013.2 27.256 50013.2 27.344 50013.2C27.4293 50013.2 27.5073 50013.2 27.578 50013.2C27.6487 50013.3 27.71 50013.3 27.762 50013.4C27.814 50013.4 27.8553 50013.5 27.886 50013.5C27.9167 50013.6 27.9347 50013.7 27.94 50013.8ZM28.268 50014.3L27.932 50014.3C27.9027 50014.5 27.842 50014.6 27.75 50014.6C27.658 50014.7 27.54 50014.7 27.396 50014.7C27.284 50014.7 27.1867 50014.7 27.104 50014.7C27.0213 50014.7 26.9533 50014.6 26.9 50014.5C26.8467 50014.5 26.808 50014.4 26.784 50014.3C26.76 50014.2 26.7493 50014.2 26.752 50014.1L28.3 50014.1C28.3053 50013.9 28.294 50013.8 28.266 50013.7C28.238 50013.5 28.1873 50013.4 28.114 50013.3C28.0407 50013.2 27.9433 50013.1 27.822 50013C27.7007 50012.9 27.548 50012.9 27.364 50012.9C27.2227 50012.9 27.0927 50012.9 26.974 50013C26.8553 50013 26.7527 50013.1 26.666 50013.2C26.5793 50013.3 26.512 50013.4 26.464 50013.5C26.416 50013.7 26.392 50013.8 26.392 50014C26.3973 50014.1 26.4207 50014.3 26.462 50014.4C26.5033 50014.5 26.5653 50014.6 26.648 50014.7C26.7307 50014.8 26.8327 50014.9 26.954 50015C27.0753 50015 27.2187 50015 27.384 50015C27.6187 50015 27.8133 50015 27.968 50014.9C28.1227 50014.8 28.2227 50014.6 28.268 50014.3Z"/>
<path d="M28.672 50012.1L28.672 50015L29.012 50015L29.012 50014.2L29.332 50013.9L30.04 50015L30.472 50015L29.592 50013.7L30.412 50012.9L29.956 50012.9L29.012 50013.8L29.012 50012.1L28.672 50012.1Z"/>
<path d="M30.936 50014.3L30.596 50014.3C30.6013 50014.5 30.628 50014.6 30.676 50014.7C30.724 50014.8 30.788 50014.8 30.868 50014.9C30.948 50014.9 31.04 50015 31.144 50015C31.248 50015 31.3573 50015 31.472 50015C31.576 50015 31.6807 50015 31.786 50015C31.8913 50015 31.986 50015 32.07 50014.9C32.154 50014.9 32.222 50014.8 32.274 50014.7C32.326 50014.6 32.352 50014.5 32.352 50014.4C32.352 50014.3 32.3327 50014.2 32.294 50014.1C32.2553 50014.1 32.2047 50014 32.142 50014C32.0793 50013.9 32.0073 50013.9 31.926 50013.9C31.8447 50013.8 31.7613 50013.8 31.676 50013.8C31.596 50013.8 31.516 50013.8 31.436 50013.8C31.356 50013.7 31.284 50013.7 31.22 50013.7C31.156 50013.7 31.1033 50013.6 31.062 50013.6C31.0207 50013.6 31 50013.5 31 50013.4C31 50013.4 31.0133 50013.4 31.04 50013.3C31.0667 50013.3 31.1013 50013.3 31.144 50013.2C31.1867 50013.2 31.234 50013.2 31.286 50013.2C31.338 50013.2 31.3893 50013.2 31.44 50013.2C31.496 50013.2 31.5513 50013.2 31.606 50013.2C31.6607 50013.2 31.7107 50013.2 31.756 50013.3C31.8013 50013.3 31.8387 50013.3 31.868 50013.4C31.8973 50013.4 31.9147 50013.5 31.92 50013.5L32.26 50013.5C32.252 50013.4 32.2253 50013.3 32.18 50013.2C32.1347 50013.1 32.074 50013.1 31.998 50013C31.922 50013 31.8347 50012.9 31.736 50012.9C31.6373 50012.9 31.5293 50012.9 31.412 50012.9C31.3213 50012.9 31.23 50012.9 31.138 50012.9C31.046 50012.9 30.9633 50013 30.89 50013C30.8167 50013.1 30.7567 50013.1 30.71 50013.2C30.6633 50013.3 30.64 50013.4 30.64 50013.5C30.64 50013.6 30.6733 50013.7 30.74 50013.8C30.8067 50013.9 30.89 50013.9 30.99 50014C31.09 50014 31.1987 50014 31.316 50014.1C31.4333 50014.1 31.542 50014.1 31.642 50014.1C31.742 50014.2 31.8253 50014.2 31.892 50014.2C31.9587 50014.3 31.992 50014.4 31.992 50014.4C31.992 50014.5 31.976 50014.6 31.944 50014.6C31.912 50014.6 31.8713 50014.7 31.822 50014.7C31.7727 50014.7 31.7187 50014.7 31.66 50014.7C31.6013 50014.7 31.5453 50014.7 31.492 50014.7C31.4227 50014.7 31.3553 50014.7 31.29 50014.7C31.2247 50014.7 31.166 50014.7 31.114 50014.7C31.062 50014.6 31.02 50014.6 30.988 50014.5C30.956 50014.5 30.9387 50014.4 30.936 50014.3Z"/>
<path d="M34.56 50015C34.5013 50015 34.42 50015 34.316 50015C34.228 50015 34.158 50015 34.106 50015C34.054 50014.9 34.028 50014.8 34.028 50014.7C33.9347 50014.8 33.826 50014.9 33.702 50015C33.578 50015 33.444 50015 33.3 50015C33.2067 50015 33.118 50015 33.034 50015C32.95 50015 32.8773 50015 32.816 50014.9C32.7547 50014.9 32.706 50014.8 32.67 50014.7C32.634 50014.7 32.616 50014.6 32.616 50014.5C32.616 50014.4 32.636 50014.3 32.676 50014.2C32.716 50014.1 32.7687 50014 32.834 50014C32.8993 50014 32.974 50013.9 33.058 50013.9C33.142 50013.9 33.228 50013.8 33.316 50013.8C33.4093 50013.8 33.498 50013.8 33.582 50013.8C33.666 50013.8 33.74 50013.8 33.804 50013.8C33.868 50013.7 33.9187 50013.7 33.956 50013.7C33.9933 50013.6 34.012 50013.6 34.012 50013.5C34.012 50013.5 33.998 50013.4 33.97 50013.3C33.942 50013.3 33.906 50013.3 33.862 50013.2C33.818 50013.2 33.7687 50013.2 33.714 50013.2C33.6593 50013.2 33.6053 50013.2 33.552 50013.2C33.408 50013.2 33.288 50013.2 33.192 50013.3C33.096 50013.3 33.044 50013.4 33.036 50013.6L32.696 50013.6C32.7013 50013.4 32.728 50013.3 32.776 50013.3C32.824 50013.2 32.888 50013.1 32.968 50013C33.048 50013 33.1393 50012.9 33.242 50012.9C33.3447 50012.9 33.4547 50012.9 33.572 50012.9C33.6653 50012.9 33.758 50012.9 33.85 50012.9C33.942 50012.9 34.0253 50012.9 34.1 50013C34.1747 50013 34.2347 50013.1 34.28 50013.2C34.3253 50013.2 34.348 50013.3 34.348 50013.5L34.348 50014.5C34.348 50014.6 34.3527 50014.7 34.362 50014.7C34.3713 50014.7 34.4027 50014.7 34.456 50014.7C34.4853 50014.7 34.52 50014.7 34.56 50014.7L34.56 50015ZM34.008 50013.9C33.9653 50014 33.9093 50014 33.84 50014C33.7707 50014 33.698 50014 33.622 50014C33.546 50014 33.4693 50014.1 33.392 50014.1C33.3147 50014.1 33.2453 50014.1 33.184 50014.1C33.1227 50014.2 33.0727 50014.2 33.034 50014.2C32.9953 50014.3 32.976 50014.4 32.976 50014.4C32.976 50014.5 32.9873 50014.5 33.01 50014.6C33.0327 50014.6 33.062 50014.7 33.098 50014.7C33.134 50014.7 33.176 50014.7 33.224 50014.7C33.272 50014.7 33.3227 50014.7 33.376 50014.7C33.488 50014.7 33.584 50014.7 33.664 50014.7C33.744 50014.7 33.8093 50014.6 33.86 50014.6C33.9107 50014.5 33.948 50014.5 33.972 50014.4C33.996 50014.4 34.008 50014.3 34.008 50014.3L34.008 50013.9Z"/>
<path d="M34.876 50012.9L34.876 50015L35.216 50015L35.216 50013.8C35.216 50013.7 35.2287 50013.7 35.254 50013.6C35.2793 50013.5 35.3173 50013.4 35.368 50013.4C35.4187 50013.3 35.482 50013.3 35.558 50013.2C35.634 50013.2 35.724 50013.2 35.828 50013.2C35.9587 50013.2 36.0613 50013.2 36.136 50013.3C36.2107 50013.4 36.248 50013.5 36.248 50013.6L36.248 50015L36.588 50015L36.588 50013.6C36.588 50013.5 36.5767 50013.4 36.554 50013.3C36.5313 50013.2 36.492 50013.2 36.436 50013.1C36.38 50013 36.3067 50013 36.216 50012.9C36.1253 50012.9 36.012 50012.9 35.876 50012.9C35.5693 50012.9 35.3453 50013 35.204 50013.3L35.196 50013.3L35.196 50012.9L34.876 50012.9Z"/>
<path d="M37.348 50014C37.348 50013.9 37.3587 50013.8 37.38 50013.7C37.4013 50013.6 37.436 50013.5 37.484 50013.4C37.532 50013.4 37.596 50013.3 37.676 50013.3C37.756 50013.2 37.8533 50013.2 37.968 50013.2C38.0853 50013.2 38.1853 50013.2 38.268 50013.2C38.3507 50013.3 38.418 50013.4 38.47 50013.4C38.522 50013.5 38.56 50013.6 38.584 50013.7C38.608 50013.8 38.62 50013.9 38.62 50014C38.62 50014.1 38.6087 50014.2 38.586 50014.3C38.5633 50014.3 38.5267 50014.4 38.476 50014.5C38.4253 50014.6 38.36 50014.6 38.28 50014.7C38.2 50014.7 38.1027 50014.7 37.988 50014.7C37.8787 50014.7 37.7833 50014.7 37.702 50014.7C37.6207 50014.6 37.554 50014.6 37.502 50014.5C37.45 50014.4 37.4113 50014.4 37.386 50014.3C37.3607 50014.2 37.348 50014.1 37.348 50014ZM38.948 50015L38.948 50012.1L38.608 50012.1L38.608 50013.2L38.6 50013.2C38.5627 50013.1 38.5167 50013.1 38.462 50013.1C38.4073 50013 38.3493 50013 38.288 50013C38.2267 50012.9 38.1653 50012.9 38.104 50012.9C38.0427 50012.9 37.9853 50012.9 37.932 50012.9C37.7747 50012.9 37.6367 50012.9 37.518 50013C37.3993 50013 37.3007 50013.1 37.222 50013.2C37.1433 50013.3 37.0847 50013.4 37.046 50013.5C37.0073 50013.7 36.988 50013.8 36.988 50014C36.988 50014.1 37.008 50014.2 37.048 50014.4C37.088 50014.5 37.1473 50014.6 37.226 50014.7C37.3047 50014.8 37.4033 50014.9 37.522 50015C37.6407 50015 37.78 50015 37.94 50015C38.084 50015 38.216 50015 38.336 50015C38.456 50014.9 38.544 50014.8 38.6 50014.7L38.608 50014.7L38.608 50015L38.948 50015Z"/>
<path d="M39.46 50012.9L39.46 50015L39.8 50015L39.8 50014.1C39.8 50013.9 39.8133 50013.8 39.84 50013.7C39.8667 50013.6 39.9093 50013.5 39.968 50013.5C40.0267 50013.4 40.104 50013.3 40.2 50013.3C40.296 50013.3 40.412 50013.2 40.548 50013.2L40.548 50012.9C40.364 50012.9 40.212 50012.9 40.092 50013C39.972 50013.1 39.8707 50013.2 39.788 50013.4L39.78 50013.4L39.78 50012.9L39.46 50012.9Z"/>
<path d="M42.352 50013.5L42.352 50012.5L43.096 50012.5C43.312 50012.5 43.47 50012.5 43.57 50012.6C43.67 50012.7 43.72 50012.8 43.72 50013C43.72 50013.2 43.67 50013.3 43.57 50013.4C43.47 50013.5 43.312 50013.5 43.096 50013.5L42.352 50013.5ZM41.972 50012.1L41.972 50015L42.352 50015L42.352 50013.8L43.224 50013.8C43.512 50013.8 43.73 50013.8 43.878 50013.6C44.026 50013.5 44.1 50013.3 44.1 50013C44.1 50012.7 44.026 50012.5 43.878 50012.4C43.73 50012.2 43.512 50012.1 43.224 50012.1L41.972 50012.1Z"/>
<path d="M46.34 50015C46.2813 50015 46.2 50015 46.096 50015C46.008 50015 45.938 50015 45.886 50015C45.834 50014.9 45.808 50014.8 45.808 50014.7C45.7147 50014.8 45.606 50014.9 45.482 50015C45.358 50015 45.224 50015 45.08 50015C44.9867 50015 44.898 50015 44.814 50015C44.73 50015 44.6573 50015 44.596 50014.9C44.5347 50014.9 44.486 50014.8 44.45 50014.7C44.414 50014.7 44.396 50014.6 44.396 50014.5C44.396 50014.4 44.416 50014.3 44.456 50014.2C44.496 50014.1 44.5487 50014 44.614 50014C44.6793 50014 44.754 50013.9 44.838 50013.9C44.922 50013.9 45.008 50013.8 45.096 50013.8C45.1893 50013.8 45.278 50013.8 45.362 50013.8C45.446 50013.8 45.52 50013.8 45.584 50013.8C45.648 50013.7 45.6987 50013.7 45.736 50013.7C45.7733 50013.6 45.792 50013.6 45.792 50013.5C45.792 50013.5 45.778 50013.4 45.75 50013.3C45.722 50013.3 45.686 50013.3 45.642 50013.2C45.598 50013.2 45.5487 50013.2 45.494 50013.2C45.4393 50013.2 45.3853 50013.2 45.332 50013.2C45.188 50013.2 45.068 50013.2 44.972 50013.3C44.876 50013.3 44.824 50013.4 44.816 50013.6L44.476 50013.6C44.4813 50013.4 44.508 50013.3 44.556 50013.3C44.604 50013.2 44.668 50013.1 44.748 50013C44.828 50013 44.9193 50012.9 45.022 50012.9C45.1247 50012.9 45.2347 50012.9 45.352 50012.9C45.4453 50012.9 45.538 50012.9 45.63 50012.9C45.722 50012.9 45.8053 50012.9 45.88 50013C45.9547 50013 46.0147 50013.1 46.06 50013.2C46.1053 50013.2 46.128 50013.3 46.128 50013.5L46.128 50014.5C46.128 50014.6 46.1327 50014.7 46.142 50014.7C46.1513 50014.7 46.1827 50014.7 46.236 50014.7C46.2653 50014.7 46.3 50014.7 46.34 50014.7L46.34 50015ZM45.788 50013.9C45.7453 50014 45.6893 50014 45.62 50014C45.5507 50014 45.478 50014 45.402 50014C45.326 50014 45.2493 50014.1 45.172 50014.1C45.0947 50014.1 45.0253 50014.1 44.964 50014.1C44.9027 50014.2 44.8527 50014.2 44.814 50014.2C44.7753 50014.3 44.756 50014.4 44.756 50014.4C44.756 50014.5 44.7673 50014.5 44.79 50014.6C44.8127 50014.6 44.842 50014.7 44.878 50014.7C44.914 50014.7 44.956 50014.7 45.004 50014.7C45.052 50014.7 45.1027 50014.7 45.156 50014.7C45.268 50014.7 45.364 50014.7 45.444 50014.7C45.524 50014.7 45.5893 50014.6 45.64 50014.6C45.6907 50014.5 45.728 50014.5 45.752 50014.4C45.776 50014.4 45.788 50014.3 45.788 50014.3L45.788 50013.9Z"/>
<path d="M46.656 50012.9L46.656 50015L46.996 50015L46.996 50013.8C46.996 50013.7 47.0087 50013.7 47.034 50013.6C47.0593 50013.5 47.0973 50013.4 47.148 50013.4C47.1987 50013.3 47.262 50013.3 47.338 50013.2C47.414 50013.2 47.504 50013.2 47.608 50013.2C47.7387 50013.2 47.8413 50013.2 47.916 50013.3C47.9907 50013.4 48.028 50013.5 48.028 50013.6L48.028 50015L48.368 50015L48.368 50013.6C48.368 50013.5 48.3567 50013.4 48.334 50013.3C48.3113 50013.2 48.272 50013.2 48.216 50013.1C48.16 50013 48.0867 50013 47.996 50012.9C47.9053 50012.9 47.792 50012.9 47.656 50012.9C47.3493 50012.9 47.1253 50013 46.984 50013.3L46.976 50013.3L46.976 50012.9L46.656 50012.9Z"/>
<path d="M50.712 50015C50.6533 50015 50.572 50015 50.468 50015C50.38 50015 50.31 50015 50.258 50015C50.206 50014.9 50.18 50014.8 50.18 50014.7C50.0867 50014.8 49.978 50014.9 49.854 50015C49.73 50015 49.596 50015 49.452 50015C49.3587 50015 49.27 50015 49.186 50015C49.102 50015 49.0293 50015 48.968 50014.9C48.9067 50014.9 48.858 50014.8 48.822 50014.7C48.786 50014.7 48.768 50014.6 48.768 50014.5C48.768 50014.4 48.788 50014.3 48.828 50014.2C48.868 50014.1 48.9207 50014 48.986 50014C49.0513 50014 49.126 50013.9 49.21 50013.9C49.294 50013.9 49.38 50013.8 49.468 50013.8C49.5613 50013.8 49.65 50013.8 49.734 50013.8C49.818 50013.8 49.892 50013.8 49.956 50013.8C50.02 50013.7 50.0707 50013.7 50.108 50013.7C50.1453 50013.6 50.164 50013.6 50.164 50013.5C50.164 50013.5 50.15 50013.4 50.122 50013.3C50.094 50013.3 50.058 50013.3 50.014 50013.2C49.97 50013.2 49.9207 50013.2 49.866 50013.2C49.8113 50013.2 49.7573 50013.2 49.704 50013.2C49.56 50013.2 49.44 50013.2 49.344 50013.3C49.248 50013.3 49.196 50013.4 49.188 50013.6L48.848 50013.6C48.8533 50013.4 48.88 50013.3 48.928 50013.3C48.976 50013.2 49.04 50013.1 49.12 50013C49.2 50013 49.2913 50012.9 49.394 50012.9C49.4967 50012.9 49.6067 50012.9 49.724 50012.9C49.8173 50012.9 49.91 50012.9 50.002 50012.9C50.094 50012.9 50.1773 50012.9 50.252 50013C50.3267 50013 50.3867 50013.1 50.432 50013.2C50.4773 50013.2 50.5 50013.3 50.5 50013.5L50.5 50014.5C50.5 50014.6 50.5047 50014.7 50.514 50014.7C50.5233 50014.7 50.5547 50014.7 50.608 50014.7C50.6373 50014.7 50.672 50014.7 50.712 50014.7L50.712 50015ZM50.16 50013.9C50.1173 50014 50.0613 50014 49.992 50014C49.9227 50014 49.85 50014 49.774 50014C49.698 50014 49.6213 50014.1 49.544 50014.1C49.4667 50014.1 49.3973 50014.1 49.336 50014.1C49.2747 50014.2 49.2247 50014.2 49.186 50014.2C49.1473 50014.3 49.128 50014.4 49.128 50014.4C49.128 50014.5 49.1393 50014.5 49.162 50014.6C49.1847 50014.6 49.214 50014.7 49.25 50014.7C49.286 50014.7 49.328 50014.7 49.376 50014.7C49.424 50014.7 49.4747 50014.7 49.528 50014.7C49.64 50014.7 49.736 50014.7 49.816 50014.7C49.896 50014.7 49.9613 50014.6 50.012 50014.6C50.0627 50014.5 50.1 50014.5 50.124 50014.4C50.148 50014.4 50.16 50014.3 50.16 50014.3L50.16 50013.9Z"/>
<path d="M51.236 50014.3L50.896 50014.3C50.9013 50014.5 50.928 50014.6 50.976 50014.7C51.024 50014.8 51.088 50014.8 51.168 50014.9C51.248 50014.9 51.34 50015 51.444 50015C51.548 50015 51.6573 50015 51.772 50015C51.876 50015 51.9807 50015 52.086 50015C52.1913 50015 52.286 50015 52.37 50014.9C52.454 50014.9 52.522 50014.8 52.574 50014.7C52.626 50014.6 52.652 50014.5 52.652 50014.4C52.652 50014.3 52.6327 50014.2 52.594 50014.1C52.5553 50014.1 52.5047 50014 52.442 50014C52.3793 50013.9 52.3073 50013.9 52.226 50013.9C52.1447 50013.8 52.0613 50013.8 51.976 50013.8C51.896 50013.8 51.816 50013.8 51.736 50013.8C51.656 50013.7 51.584 50013.7 51.52 50013.7C51.456 50013.7 51.4033 50013.6 51.362 50013.6C51.3207 50013.6 51.3 50013.5 51.3 50013.4C51.3 50013.4 51.3133 50013.4 51.34 50013.3C51.3667 50013.3 51.4013 50013.3 51.444 50013.2C51.4867 50013.2 51.534 50013.2 51.586 50013.2C51.638 50013.2 51.6893 50013.2 51.74 50013.2C51.796 50013.2 51.8513 50013.2 51.906 50013.2C51.9607 50013.2 52.0107 50013.2 52.056 50013.3C52.1013 50013.3 52.1387 50013.3 52.168 50013.4C52.1973 50013.4 52.2147 50013.5 52.22 50013.5L52.56 50013.5C52.552 50013.4 52.5253 50013.3 52.48 50013.2C52.4347 50013.1 52.374 50013.1 52.298 50013C52.222 50013 52.1347 50012.9 52.036 50012.9C51.9373 50012.9 51.8293 50012.9 51.712 50012.9C51.6213 50012.9 51.53 50012.9 51.438 50012.9C51.346 50012.9 51.2633 50013 51.19 50013C51.1167 50013.1 51.0567 50013.1 51.01 50013.2C50.9633 50013.3 50.94 50013.4 50.94 50013.5C50.94 50013.6 50.9733 50013.7 51.04 50013.8C51.1067 50013.9 51.19 50013.9 51.29 50014C51.39 50014 51.4987 50014 51.616 50014.1C51.7333 50014.1 51.842 50014.1 51.942 50014.1C52.042 50014.2 52.1253 50014.2 52.192 50014.2C52.2587 50014.3 52.292 50014.4 52.292 50014.4C52.292 50014.5 52.276 50014.6 52.244 50014.6C52.212 50014.6 52.1713 50014.7 52.122 50014.7C52.0727 50014.7 52.0187 50014.7 51.96 50014.7C51.9013 50014.7 51.8453 50014.7 51.792 50014.7C51.7227 50014.7 51.6553 50014.7 51.59 50014.7C51.5247 50014.7 51.466 50014.7 51.414 50014.7C51.362 50014.6 51.32 50014.6 51.288 50014.5C51.256 50014.5 51.2387 50014.4 51.236 50014.3Z"/>
<path d="M53.276 50014C53.276 50013.8 53.2927 50013.7 53.326 50013.6C53.3593 50013.5 53.4053 50013.5 53.464 50013.4C53.5227 50013.3 53.5913 50013.3 53.67 50013.2C53.7487 50013.2 53.832 50013.2 53.92 50013.2C54.008 50013.2 54.0913 50013.2 54.17 50013.2C54.2487 50013.3 54.3173 50013.3 54.376 50013.4C54.4347 50013.5 54.4807 50013.5 54.514 50013.6C54.5473 50013.7 54.564 50013.8 54.564 50014C54.564 50014.1 54.5473 50014.2 54.514 50014.3C54.4807 50014.4 54.4347 50014.5 54.376 50014.5C54.3173 50014.6 54.2487 50014.7 54.17 50014.7C54.0913 50014.7 54.008 50014.7 53.92 50014.7C53.832 50014.7 53.7487 50014.7 53.67 50014.7C53.5913 50014.7 53.5227 50014.6 53.464 50014.5C53.4053 50014.5 53.3593 50014.4 53.326 50014.3C53.2927 50014.2 53.276 50014.1 53.276 50014ZM52.916 50014C52.916 50014.1 52.9373 50014.3 52.98 50014.4C53.0227 50014.5 53.0867 50014.6 53.172 50014.7C53.2573 50014.8 53.3627 50014.9 53.488 50015C53.6133 50015 53.7573 50015 53.92 50015C54.0853 50015 54.23 50015 54.354 50015C54.478 50014.9 54.5827 50014.8 54.668 50014.7C54.7533 50014.6 54.8173 50014.5 54.86 50014.4C54.9027 50014.3 54.924 50014.1 54.924 50014C54.924 50013.8 54.9027 50013.7 54.86 50013.5C54.8173 50013.4 54.7533 50013.3 54.668 50013.2C54.5827 50013.1 54.478 50013 54.354 50013C54.23 50012.9 54.0853 50012.9 53.92 50012.9C53.7573 50012.9 53.6133 50012.9 53.488 50013C53.3627 50013 53.2573 50013.1 53.172 50013.2C53.0867 50013.3 53.0227 50013.4 52.98 50013.5C52.9373 50013.7 52.916 50013.8 52.916 50014Z"/>
<path d="M56.256 50015L57.012 50012.9L56.656 50012.9L56.092 50014.7L56.084 50014.7L55.504 50012.9L55.124 50012.9L55.892 50015L56.256 50015Z"/>
<path d="M57.532 50014.3L57.192 50014.3C57.1973 50014.5 57.224 50014.6 57.272 50014.7C57.32 50014.8 57.384 50014.8 57.464 50014.9C57.544 50014.9 57.636 50015 57.74 50015C57.844 50015 57.9533 50015 58.068 50015C58.172 50015 58.2767 50015 58.382 50015C58.4873 50015 58.582 50015 58.666 50014.9C58.75 50014.9 58.818 50014.8 58.87 50014.7C58.922 50014.6 58.948 50014.5 58.948 50014.4C58.948 50014.3 58.9287 50014.2 58.89 50014.1C58.8513 50014.1 58.8007 50014 58.738 50014C58.6753 50013.9 58.6033 50013.9 58.522 50013.9C58.4407 50013.8 58.3573 50013.8 58.272 50013.8C58.192 50013.8 58.112 50013.8 58.032 50013.8C57.952 50013.7 57.88 50013.7 57.816 50013.7C57.752 50013.7 57.6993 50013.6 57.658 50013.6C57.6167 50013.6 57.596 50013.5 57.596 50013.4C57.596 50013.4 57.6093 50013.4 57.636 50013.3C57.6627 50013.3 57.6973 50013.3 57.74 50013.2C57.7827 50013.2 57.83 50013.2 57.882 50013.2C57.934 50013.2 57.9853 50013.2 58.036 50013.2C58.092 50013.2 58.1473 50013.2 58.202 50013.2C58.2567 50013.2 58.3067 50013.2 58.352 50013.3C58.3973 50013.3 58.4347 50013.3 58.464 50013.4C58.4933 50013.4 58.5107 50013.5 58.516 50013.5L58.856 50013.5C58.848 50013.4 58.8213 50013.3 58.776 50013.2C58.7307 50013.1 58.67 50013.1 58.594 50013C58.518 50013 58.4307 50012.9 58.332 50012.9C58.2333 50012.9 58.1253 50012.9 58.008 50012.9C57.9173 50012.9 57.826 50012.9 57.734 50012.9C57.642 50012.9 57.5593 50013 57.486 50013C57.4127 50013.1 57.3527 50013.1 57.306 50013.2C57.2593 50013.3 57.236 50013.4 57.236 50013.5C57.236 50013.6 57.2693 50013.7 57.336 50013.8C57.4027 50013.9 57.486 50013.9 57.586 50014C57.686 50014 57.7947 50014 57.912 50014.1C58.0293 50014.1 58.138 50014.1 58.238 50014.1C58.338 50014.2 58.4213 50014.2 58.488 50014.2C58.5547 50014.3 58.588 50014.4 58.588 50014.4C58.588 50014.5 58.572 50014.6 58.54 50014.6C58.508 50014.6 58.4673 50014.7 58.418 50014.7C58.3687 50014.7 58.3147 50014.7 58.256 50014.7C58.1973 50014.7 58.1413 50014.7 58.088 50014.7C58.0187 50014.7 57.9513 50014.7 57.886 50014.7C57.8207 50014.7 57.762 50014.7 57.71 50014.7C57.658 50014.6 57.616 50014.6 57.584 50014.5C57.552 50014.5 57.5347 50014.4 57.532 50014.3Z"/>
<path d="M59.344 50012.1L59.344 50015L59.684 50015L59.684 50014.2L60.004 50013.9L60.712 50015L61.144 50015L60.264 50013.7L61.084 50012.9L60.628 50012.9L59.684 50013.8L59.684 50012.1L59.344 50012.1Z"/>
<path d="M62.212 50015.3C62.172 50015.4 62.1327 50015.5 62.094 50015.5C62.0553 50015.6 62.0127 50015.7 61.966 50015.7C61.9193 50015.7 61.8673 50015.8 61.81 50015.8C61.7527 50015.8 61.6867 50015.8 61.612 50015.8C61.572 50015.8 61.532 50015.8 61.492 50015.8C61.452 50015.8 61.4133 50015.8 61.376 50015.8L61.376 50015.5C61.4053 50015.5 61.4393 50015.5 61.478 50015.5C61.5167 50015.5 61.5493 50015.5 61.576 50015.5C61.6453 50015.5 61.7033 50015.5 61.75 50015.5C61.7967 50015.4 61.832 50015.4 61.856 50015.3L61.996 50015L61.176 50012.9L61.56 50012.9L62.164 50014.6L62.172 50014.6L62.752 50012.9L63.112 50012.9L62.212 50015.3Z"/>
<path d="M63.76 50012.6L63.76 50012.1L63.42 50012.1L63.42 50012.6L63.76 50012.6ZM63.42 50012.9L63.42 50015L63.76 50015L63.76 50012.9L63.42 50012.9Z"/>
</g>
<g fill="#000000" opacity="1" stroke="none">
<path d="M1.896 50018.2L1.896 50020L2.236 50020L2.236 50018.2L2.636 50018.2L2.636 50017.9L2.236 50017.9L2.236 50017.6C2.236 50017.6 2.25867 50017.5 2.304 50017.5C2.34933 50017.4 2.41333 50017.4 2.496 50017.4C2.52533 50017.4 2.55733 50017.4 2.592 50017.4C2.62667 50017.4 2.65867 50017.4 2.688 50017.4L2.688 50017.1C2.656 50017.1 2.61933 50017.1 2.578 50017.1C2.53667 50017.1 2.5 50017.1 2.468 50017.1C2.28133 50017.1 2.13933 50017.2 2.042 50017.2C1.94467 50017.3 1.896 50017.5 1.896 50017.6L1.896 50017.9L1.548 50017.9L1.548 50018.2L1.896 50018.2Z"/>
<path d="M2.928 50017.9L2.928 50020L3.268 50020L3.268 50019.1C3.268 50018.9 3.28133 50018.8 3.308 50018.7C3.33467 50018.6 3.37733 50018.5 3.436 50018.5C3.49467 50018.4 3.572 50018.3 3.668 50018.3C3.764 50018.3 3.88 50018.2 4.016 50018.2L4.016 50017.9C3.832 50017.9 3.68 50017.9 3.56 50018C3.44 50018.1 3.33867 50018.2 3.256 50018.4L3.248 50018.4L3.248 50017.9L2.928 50017.9Z"/>
<path d="M4.448 50019C4.448 50018.8 4.46467 50018.7 4.498 50018.6C4.53133 50018.5 4.57733 50018.5 4.636 50018.4C4.69467 50018.3 4.76333 50018.3 4.842 50018.2C4.92067 50018.2 5.004 50018.2 5.092 50018.2C5.18 50018.2 5.26333 50018.2 5.342 50018.2C5.42067 50018.3 5.48933 50018.3 5.548 50018.4C5.60667 50018.5 5.65267 50018.5 5.686 50018.6C5.71933 50018.7 5.736 50018.8 5.736 50019C5.736 50019.1 5.71933 50019.2 5.686 50019.3C5.65267 50019.4 5.60667 50019.5 5.548 50019.5C5.48933 50019.6 5.42067 50019.7 5.342 50019.7C5.26333 50019.7 5.18 50019.7 5.092 50019.7C5.004 50019.7 4.92067 50019.7 4.842 50019.7C4.76333 50019.7 4.69467 50019.6 4.636 50019.5C4.57733 50019.5 4.53133 50019.4 4.498 50019.3C4.46467 50019.2 4.448 50019.1 4.448 50019ZM4.088 50019C4.088 50019.1 4.10933 50019.3 4.152 50019.4C4.19467 50019.5 4.25867 50019.6 4.344 50019.7C4.42933 50019.8 4.53467 50019.9 4.66 50020C4.78533 50020 4.92933 50020 5.092 50020C5.25733 50020 5.402 50020 5.526 50020C5.65 50019.9 5.75467 50019.8 5.84 50019.7C5.92533 50019.6 5.98933 50019.5 6.032 50019.4C6.07467 50019.3 6.096 50019.1 6.096 50019C6.096 50018.8 6.07467 50018.7 6.032 50018.5C5.98933 50018.4 5.92533 50018.3 5.84 50018.2C5.75467 50018.1 5.65 50018 5.526 50018C5.402 50017.9 5.25733 50017.9 5.092 50017.9C4.92933 50017.9 4.78533 50017.9 4.66 50018C4.53467 50018 4.42933 50018.1 4.344 50018.2C4.25867 50018.3 4.19467 50018.4 4.152 50018.5C4.10933 50018.7 4.088 50018.8 4.088 50019Z"/>
<path d="M6.496 50017.9L6.496 50020L6.836 50020L6.836 50018.7C6.836 50018.7 6.846 50018.6 6.866 50018.6C6.886 50018.5 6.918 50018.4 6.962 50018.4C7.006 50018.3 7.06333 50018.3 7.134 50018.2C7.20467 50018.2 7.28933 50018.2 7.388 50018.2C7.46533 50018.2 7.52867 50018.2 7.578 50018.2C7.62733 50018.2 7.66667 50018.3 7.696 50018.3C7.72533 50018.4 7.746 50018.4 7.758 50018.5C7.77 50018.5 7.776 50018.6 7.776 50018.6L7.776 50020L8.116 50020L8.116 50018.7C8.116 50018.6 8.164 50018.4 8.26 50018.3C8.356 50018.2 8.488 50018.2 8.656 50018.2C8.73867 50018.2 8.806 50018.2 8.858 50018.2C8.91 50018.2 8.95067 50018.3 8.98 50018.3C9.00933 50018.4 9.02933 50018.4 9.04 50018.5C9.05067 50018.5 9.056 50018.6 9.056 50018.6L9.056 50020L9.396 50020L9.396 50018.5C9.396 50018.4 9.37933 50018.3 9.346 50018.2C9.31267 50018.1 9.266 50018.1 9.206 50018C9.146 50018 9.074 50017.9 8.99 50017.9C8.906 50017.9 8.812 50017.9 8.708 50017.9C8.572 50017.9 8.44733 50017.9 8.334 50018C8.22067 50018 8.12933 50018.1 8.06 50018.2C8.01733 50018.1 7.944 50018 7.84 50018C7.736 50017.9 7.62 50017.9 7.492 50017.9C7.20133 50017.9 6.97867 50018 6.824 50018.2L6.816 50018.2L6.816 50017.9L6.496 50017.9Z"/>
<path d="M11.492 50017.9L11.492 50017.3L11.152 50017.3L11.152 50017.9L10.8 50017.9L10.8 50018.2L11.152 50018.2L11.152 50019.5C11.152 50019.6 11.1613 50019.7 11.18 50019.8C11.1987 50019.8 11.2273 50019.9 11.266 50019.9C11.3047 50019.9 11.3553 50020 11.418 50020C11.4807 50020 11.556 50020 11.644 50020L11.904 50020L11.904 50019.7L11.748 50019.7C11.6947 50019.7 11.6513 50019.7 11.618 50019.7C11.5847 50019.7 11.5587 50019.7 11.54 50019.7C11.5213 50019.7 11.5087 50019.6 11.502 50019.6C11.4953 50019.6 11.492 50019.6 11.492 50019.5L11.492 50018.2L11.904 50018.2L11.904 50017.9L11.492 50017.9Z"/>
<path d="M12.28 50017.1L12.28 50020L12.62 50020L12.62 50018.8C12.62 50018.7 12.6327 50018.7 12.658 50018.6C12.6833 50018.5 12.7213 50018.4 12.772 50018.4C12.8227 50018.3 12.886 50018.3 12.962 50018.2C13.038 50018.2 13.128 50018.2 13.232 50018.2C13.3627 50018.2 13.4653 50018.2 13.54 50018.3C13.6147 50018.4 13.652 50018.5 13.652 50018.6L13.652 50020L13.992 50020L13.992 50018.6C13.992 50018.5 13.9807 50018.4 13.958 50018.3C13.9353 50018.2 13.896 50018.2 13.84 50018.1C13.784 50018 13.7107 50018 13.62 50017.9C13.5293 50017.9 13.416 50017.9 13.28 50017.9C13.2187 50017.9 13.1553 50017.9 13.09 50017.9C13.0247 50017.9 12.962 50017.9 12.902 50018C12.842 50018 12.788 50018 12.74 50018.1C12.692 50018.1 12.6547 50018.2 12.628 50018.2L12.62 50018.2L12.62 50017.1L12.28 50017.1Z"/>
<path d="M15.94 50018.8L14.752 50018.8C14.7573 50018.7 14.7747 50018.6 14.804 50018.5C14.8333 50018.5 14.8733 50018.4 14.924 50018.4C14.9747 50018.3 15.0353 50018.3 15.106 50018.2C15.1767 50018.2 15.256 50018.2 15.344 50018.2C15.4293 50018.2 15.5073 50018.2 15.578 50018.2C15.6487 50018.3 15.71 50018.3 15.762 50018.4C15.814 50018.4 15.8553 50018.5 15.886 50018.5C15.9167 50018.6 15.9347 50018.7 15.94 50018.8ZM16.268 50019.3L15.932 50019.3C15.9027 50019.5 15.842 50019.6 15.75 50019.6C15.658 50019.7 15.54 50019.7 15.396 50019.7C15.284 50019.7 15.1867 50019.7 15.104 50019.7C15.0213 50019.7 14.9533 50019.6 14.9 50019.5C14.8467 50019.5 14.808 50019.4 14.784 50019.3C14.76 50019.2 14.7493 50019.2 14.752 50019.1L16.3 50019.1C16.3053 50018.9 16.294 50018.8 16.266 50018.7C16.238 50018.5 16.1873 50018.4 16.114 50018.3C16.0407 50018.2 15.9433 50018.1 15.822 50018C15.7007 50017.9 15.548 50017.9 15.364 50017.9C15.2227 50017.9 15.0927 50017.9 14.974 50018C14.8553 50018 14.7527 50018.1 14.666 50018.2C14.5793 50018.3 14.512 50018.4 14.464 50018.5C14.416 50018.7 14.392 50018.8 14.392 50019C14.3973 50019.1 14.4207 50019.3 14.462 50019.4C14.5033 50019.5 14.5653 50019.6 14.648 50019.7C14.7307 50019.8 14.8327 50019.9 14.954 50020C15.0753 50020 15.2187 50020 15.384 50020C15.6187 50020 15.8133 50020 15.968 50019.9C16.1227 50019.8 16.2227 50019.6 16.268 50019.3Z"/>
<path d="M17.816 50017.1L17.816 50020L18.176 50020L18.176 50017.7L18.184 50017.7L19.676 50020L20.092 50020L20.092 50017.1L19.732 50017.1L19.732 50019.5L19.724 50019.5L18.22 50017.1L17.816 50017.1Z"/>
<path d="M20.9 50019C20.9 50018.8 20.9167 50018.7 20.95 50018.6C20.9833 50018.5 21.0293 50018.5 21.088 50018.4C21.1467 50018.3 21.2153 50018.3 21.294 50018.2C21.3727 50018.2 21.456 50018.2 21.544 50018.2C21.632 50018.2 21.7153 50018.2 21.794 50018.2C21.8727 50018.3 21.9413 50018.3 22 50018.4C22.0587 50018.5 22.1047 50018.5 22.138 50018.6C22.1713 50018.7 22.188 50018.8 22.188 50019C22.188 50019.1 22.1713 50019.2 22.138 50019.3C22.1047 50019.4 22.0587 50019.5 22 50019.5C21.9413 50019.6 21.8727 50019.7 21.794 50019.7C21.7153 50019.7 21.632 50019.7 21.544 50019.7C21.456 50019.7 21.3727 50019.7 21.294 50019.7C21.2153 50019.7 21.1467 50019.6 21.088 50019.5C21.0293 50019.5 20.9833 50019.4 20.95 50019.3C20.9167 50019.2 20.9 50019.1 20.9 50019ZM20.54 50019C20.54 50019.1 20.5613 50019.3 20.604 50019.4C20.6467 50019.5 20.7107 50019.6 20.796 50019.7C20.8813 50019.8 20.9867 50019.9 21.112 50020C21.2373 50020 21.3813 50020 21.544 50020C21.7093 50020 21.854 50020 21.978 50020C22.102 50019.9 22.2067 50019.8 22.292 50019.7C22.3773 50019.6 22.4413 50019.5 22.484 50019.4C22.5267 50019.3 22.548 50019.1 22.548 50019C22.548 50018.8 22.5267 50018.7 22.484 50018.5C22.4413 50018.4 22.3773 50018.3 22.292 50018.2C22.2067 50018.1 22.102 50018 21.978 50018C21.854 50017.9 21.7093 50017.9 21.544 50017.9C21.3813 50017.9 21.2373 50017.9 21.112 50018C20.9867 50018 20.8813 50018.1 20.796 50018.2C20.7107 50018.3 20.6467 50018.4 20.604 50018.5C20.5613 50018.7 20.54 50018.8 20.54 50019Z"/>
<path d="M24.66 50020L24.66 50017.9L24.32 50017.9L24.32 50019.1C24.32 50019.2 24.3073 50019.3 24.282 50019.4C24.2567 50019.4 24.2187 50019.5 24.168 50019.6C24.1173 50019.6 24.054 50019.7 23.978 50019.7C23.902 50019.7 23.812 50019.7 23.708 50019.7C23.5773 50019.7 23.4747 50019.7 23.4 50019.6C23.3253 50019.6 23.288 50019.5 23.288 50019.3L23.288 50017.9L22.948 50017.9L22.948 50019.3C22.948 50019.4 22.9593 50019.5 22.982 50019.6C23.0047 50019.7 23.044 50019.8 23.1 50019.8C23.156 50019.9 23.2293 50020 23.32 50020C23.4107 50020 23.524 50020 23.66 50020C23.812 50020 23.944 50020 24.056 50020C24.168 50019.9 24.26 50019.8 24.332 50019.7L24.34 50019.7L24.34 50020L24.66 50020Z"/>
<path d="M25.172 50017.9L25.172 50020L25.512 50020L25.512 50018.8C25.512 50018.7 25.5247 50018.7 25.55 50018.6C25.5753 50018.5 25.6133 50018.4 25.664 50018.4C25.7147 50018.3 25.778 50018.3 25.854 50018.2C25.93 50018.2 26.02 50018.2 26.124 50018.2C26.2547 50018.2 26.3573 50018.2 26.432 50018.3C26.5067 50018.4 26.544 50018.5 26.544 50018.6L26.544 50020L26.884 50020L26.884 50018.6C26.884 50018.5 26.8727 50018.4 26.85 50018.3C26.8273 50018.2 26.788 50018.2 26.732 50018.1C26.676 50018 26.6027 50018 26.512 50017.9C26.4213 50017.9 26.308 50017.9 26.172 50017.9C25.8653 50017.9 25.6413 50018 25.5 50018.3L25.492 50018.3L25.492 50017.9L25.172 50017.9Z"/>
<path d="M28.944 50018.5L28.944 50017.5L29.688 50017.5C29.904 50017.5 30.062 50017.5 30.162 50017.6C30.262 50017.7 30.312 50017.8 30.312 50018C30.312 50018.2 30.262 50018.3 30.162 50018.4C30.062 50018.5 29.904 50018.5 29.688 50018.5L28.944 50018.5ZM28.564 50017.1L28.564 50020L28.944 50020L28.944 50018.8L29.816 50018.8C30.104 50018.8 30.322 50018.8 30.47 50018.6C30.618 50018.5 30.692 50018.3 30.692 50018C30.692 50017.7 30.618 50017.5 30.47 50017.4C30.322 50017.2 30.104 50017.1 29.816 50017.1L28.564 50017.1Z"/>
<path d="M31.088 50017.9L31.088 50020L31.428 50020L31.428 50019.1C31.428 50018.9 31.4413 50018.8 31.468 50018.7C31.4947 50018.6 31.5373 50018.5 31.596 50018.5C31.6547 50018.4 31.732 50018.3 31.828 50018.3C31.924 50018.3 32.04 50018.2 32.176 50018.2L32.176 50017.9C31.992 50017.9 31.84 50017.9 31.72 50018C31.6 50018.1 31.4987 50018.2 31.416 50018.4L31.408 50018.4L31.408 50017.9L31.088 50017.9Z"/>
<path d="M32.608 50019C32.608 50018.8 32.6247 50018.7 32.658 50018.6C32.6913 50018.5 32.7373 50018.5 32.796 50018.4C32.8547 50018.3 32.9233 50018.3 33.002 50018.2C33.0807 50018.2 33.164 50018.2 33.252 50018.2C33.34 50018.2 33.4233 50018.2 33.502 50018.2C33.5807 50018.3 33.6493 50018.3 33.708 50018.4C33.7667 50018.5 33.8127 50018.5 33.846 50018.6C33.8793 50018.7 33.896 50018.8 33.896 50019C33.896 50019.1 33.8793 50019.2 33.846 50019.3C33.8127 50019.4 33.7667 50019.5 33.708 50019.5C33.6493 50019.6 33.5807 50019.7 33.502 50019.7C33.4233 50019.7 33.34 50019.7 33.252 50019.7C33.164 50019.7 33.0807 50019.7 33.002 50019.7C32.9233 50019.7 32.8547 50019.6 32.796 50019.5C32.7373 50019.5 32.6913 50019.4 32.658 50019.3C32.6247 50019.2 32.608 50019.1 32.608 50019ZM32.248 50019C32.248 50019.1 32.2693 50019.3 32.312 50019.4C32.3547 50019.5 32.4187 50019.6 32.504 50019.7C32.5893 50019.8 32.6947 50019.9 32.82 50020C32.9453 50020 33.0893 50020 33.252 50020C33.4173 50020 33.562 50020 33.686 50020C33.81 50019.9 33.9147 50019.8 34 50019.7C34.0853 50019.6 34.1493 50019.5 34.192 50019.4C34.2347 50019.3 34.256 50019.1 34.256 50019C34.256 50018.8 34.2347 50018.7 34.192 50018.5C34.1493 50018.4 34.0853 50018.3 34 50018.2C33.9147 50018.1 33.81 50018 33.686 50018C33.562 50017.9 33.4173 50017.9 33.252 50017.9C33.0893 50017.9 32.9453 50017.9 32.82 50018C32.6947 50018 32.5893 50018.1 32.504 50018.2C32.4187 50018.3 32.3547 50018.4 32.312 50018.5C32.2693 50018.7 32.248 50018.8 32.248 50019Z"/>
<path d="M35.016 50017.6L35.016 50017.1L34.676 50017.1L34.676 50017.6L35.016 50017.6ZM35.016 50020.3L35.016 50017.9L34.676 50017.9L34.676 50020.2C34.676 50020.3 34.6627 50020.4 34.636 50020.4C34.6093 50020.5 34.5587 50020.5 34.484 50020.5L34.412 50020.5C34.4013 50020.5 34.3913 50020.5 34.382 50020.5C34.3727 50020.5 34.3613 50020.5 34.348 50020.5L34.348 50020.8C34.4013 50020.8 34.4587 50020.8 34.52 50020.8C34.672 50020.8 34.7927 50020.7 34.882 50020.7C34.9713 50020.6 35.016 50020.4 35.016 50020.3Z"/>
<path d="M36.98 50018.8L35.792 50018.8C35.7973 50018.7 35.8147 50018.6 35.844 50018.5C35.8733 50018.5 35.9133 50018.4 35.964 50018.4C36.0147 50018.3 36.0753 50018.3 36.146 50018.2C36.2167 50018.2 36.296 50018.2 36.384 50018.2C36.4693 50018.2 36.5473 50018.2 36.618 50018.2C36.6887 50018.3 36.75 50018.3 36.802 50018.4C36.854 50018.4 36.8953 50018.5 36.926 50018.5C36.9567 50018.6 36.9747 50018.7 36.98 50018.8ZM37.308 50019.3L36.972 50019.3C36.9427 50019.5 36.882 50019.6 36.79 50019.6C36.698 50019.7 36.58 50019.7 36.436 50019.7C36.324 50019.7 36.2267 50019.7 36.144 50019.7C36.0613 50019.7 35.9933 50019.6 35.94 50019.5C35.8867 50019.5 35.848 50019.4 35.824 50019.3C35.8 50019.2 35.7893 50019.2 35.792 50019.1L37.34 50019.1C37.3453 50018.9 37.334 50018.8 37.306 50018.7C37.278 50018.5 37.2273 50018.4 37.154 50018.3C37.0807 50018.2 36.9833 50018.1 36.862 50018C36.7407 50017.9 36.588 50017.9 36.404 50017.9C36.2627 50017.9 36.1327 50017.9 36.014 50018C35.8953 50018 35.7927 50018.1 35.706 50018.2C35.6193 50018.3 35.552 50018.4 35.504 50018.5C35.456 50018.7 35.432 50018.8 35.432 50019C35.4373 50019.1 35.4607 50019.3 35.502 50019.4C35.5433 50019.5 35.6053 50019.6 35.688 50019.7C35.7707 50019.8 35.8727 50019.9 35.994 50020C36.1153 50020 36.2587 50020 36.424 50020C36.6587 50020 36.8533 50020 37.008 50019.9C37.1627 50019.8 37.2627 50019.6 37.308 50019.3Z"/>
<path d="M39.096 50018.6L39.448 50018.6C39.4347 50018.5 39.4027 50018.4 39.352 50018.3C39.3013 50018.2 39.2367 50018.1 39.158 50018.1C39.0793 50018 38.9887 50018 38.886 50017.9C38.7833 50017.9 38.6733 50017.9 38.556 50017.9C38.3933 50017.9 38.2507 50017.9 38.128 50018C38.0053 50018 37.9033 50018.1 37.822 50018.2C37.7407 50018.3 37.68 50018.4 37.64 50018.6C37.6 50018.7 37.58 50018.8 37.58 50019C37.58 50019.1 37.6007 50019.3 37.642 50019.4C37.6833 50019.5 37.7447 50019.7 37.826 50019.8C37.9073 50019.8 38.0087 50019.9 38.13 50020C38.2513 50020 38.3907 50020 38.548 50020C38.812 50020 39.0207 50020 39.174 50019.8C39.3273 50019.7 39.4227 50019.5 39.46 50019.2L39.112 50019.2C39.0907 50019.4 39.0327 50019.5 38.938 50019.6C38.8433 50019.7 38.712 50019.7 38.544 50019.7C38.4373 50019.7 38.3453 50019.7 38.268 50019.7C38.1907 50019.6 38.128 50019.6 38.08 50019.5C38.032 50019.4 37.9967 50019.4 37.974 50019.3C37.9513 50019.2 37.94 50019.1 37.94 50019C37.94 50018.9 37.9507 50018.8 37.972 50018.7C37.9933 50018.6 38.0287 50018.5 38.078 50018.4C38.1273 50018.4 38.1933 50018.3 38.276 50018.3C38.3587 50018.2 38.4613 50018.2 38.584 50018.2C38.728 50018.2 38.8427 50018.2 38.928 50018.3C39.0133 50018.4 39.0693 50018.5 39.096 50018.6Z"/>
<path d="M40.312 50017.9L40.312 50017.3L39.972 50017.3L39.972 50017.9L39.62 50017.9L39.62 50018.2L39.972 50018.2L39.972 50019.5C39.972 50019.6 39.9813 50019.7 40 50019.8C40.0187 50019.8 40.0473 50019.9 40.086 50019.9C40.1247 50019.9 40.1753 50020 40.238 50020C40.3007 50020 40.376 50020 40.464 50020L40.724 50020L40.724 50019.7L40.568 50019.7C40.5147 50019.7 40.4713 50019.7 40.438 50019.7C40.4047 50019.7 40.3787 50019.7 40.36 50019.7C40.3413 50019.7 40.3287 50019.6 40.322 50019.6C40.3153 50019.6 40.312 50019.6 40.312 50019.5L40.312 50018.2L40.724 50018.2L40.724 50017.9L40.312 50017.9Z"/>
</g>
</g>
</svg>
