<svg width="100%" height="100%" viewBox="0 0 50 50" fill="none" xmlns="http://www.w3.org/2000/svg">
<path d="M24.2965 10.2344L28.2027 6.32813C29.2184 5.31243 30.4242 4.50674 31.7513 3.95705C33.0783 3.40736 34.5007 3.12444 35.9371 3.12444C37.3735 3.12444 38.7958 3.40736 40.1229 3.95705C41.45 4.50674 42.6558 5.31243 43.6715 6.32813C44.6871 7.34382 45.4928 8.54962 46.0425 9.87669C46.5922 11.2038 46.8751 12.6261 46.8751 14.0625C46.8751 15.4989 46.5922 16.9212 46.0425 18.2483C45.4928 19.5754 44.6871 20.7812 43.6715 21.7969L35.859 29.6094C34.8433 30.6251 33.6375 31.4309 32.3104 31.9806C30.9834 32.5303 29.561 32.8133 28.1246 32.8133C26.6882 32.8133 25.2658 32.5303 23.9387 31.9806C22.6117 31.4309 21.4059 30.6251 20.3902 29.6094C19.9764 29.1648 19.7511 28.5771 19.7616 27.9699C19.7721 27.3627 20.0176 26.7831 20.4465 26.3531C20.8765 25.9242 21.456 25.6788 22.0632 25.6683C22.6705 25.6578 23.2581 25.8831 23.7027 26.2969C24.2827 26.8787 24.9719 27.3404 25.7307 27.6554C26.4895 27.9704 27.303 28.1325 28.1246 28.1325C28.9462 28.1325 29.7597 27.9704 30.5185 27.6554C31.2773 27.3404 31.9664 26.8787 32.5465 26.2969L40.359 18.4844C41.4747 17.3002 42.0851 15.7279 42.0609 14.1011C42.0367 12.4743 41.3796 10.9209 40.2292 9.7704C39.0787 8.61993 37.5253 7.9629 35.8985 7.93868C34.2717 7.91445 32.6994 8.52493 31.5152 9.64063L27.609 13.5469C27.1644 13.9607 26.5767 14.186 25.9695 14.1755C25.3622 14.165 24.7827 13.9195 24.3527 13.4906C23.9238 13.0606 23.6783 12.4811 23.6678 11.8738C23.6574 11.2666 23.8827 10.6789 24.2965 10.2344ZM9.64021 40.3594C10.2202 40.9412 10.9094 41.4029 11.6682 41.7179C12.427 42.0329 13.2405 42.195 14.0621 42.195C14.8837 42.195 15.6972 42.0329 16.456 41.7179C17.2148 41.4029 17.9039 40.9412 18.484 40.3594L22.3902 36.4531C22.8348 36.0393 23.4224 35.814 24.0297 35.8245C24.6369 35.835 25.2164 36.0805 25.6465 36.5094C26.0753 36.9394 26.3208 37.5189 26.3313 38.1262C26.3418 38.7334 26.1165 39.3211 25.7027 39.7656L21.7965 43.6719C20.7808 44.6876 19.575 45.4933 18.2479 46.0429C16.9208 46.5926 15.4985 46.8756 14.0621 46.8756C11.1611 46.8756 8.37899 45.7232 6.32771 43.6719C4.27642 41.6206 3.12402 38.8385 3.12402 35.9375C3.12402 33.0365 4.27642 30.2544 6.32771 28.2031L14.1402 20.3906C15.1559 19.3749 16.3617 18.5691 17.6887 18.0194C19.0158 17.4697 20.4382 17.1867 21.8746 17.1867C23.311 17.1867 24.7334 17.4697 26.0604 18.0194C27.3875 18.5691 28.5933 19.3749 29.609 20.3906C30.0227 20.8352 30.2481 21.4229 30.2376 22.0301C30.2271 22.6373 29.9816 23.2169 29.5527 23.6469C29.1227 24.0758 28.5432 24.3212 27.9359 24.3317C27.3287 24.3422 26.741 24.1169 26.2965 23.7031C25.7164 23.1213 25.0273 22.6596 24.2685 22.3446C23.5097 22.0296 22.6962 21.8675 21.8746 21.8675C21.053 21.8675 20.2395 22.0296 19.4807 22.3446C18.7219 22.6596 18.0327 23.1213 17.4527 23.7031L9.64021 31.5156C9.05836 32.0957 8.5967 32.7848 8.28171 33.5436C7.96671 34.3024 7.80457 35.1159 7.80457 35.9375C7.80457 36.7591 7.96671 37.5726 8.28171 38.3314C8.5967 39.0902 9.05836 39.7793 9.64021 40.3594Z" fill="#F8F8F8"/>
</svg>
