<?xml version="1.0" encoding="UTF-8" standalone="no"?>
<!DOCTYPE svg PUBLIC "-//W3C//DTD SVG 1.1//EN" "http://www.w3.org/Graphics/SVG/1.1/DTD/svg11.dtd">
<!-- Created with Vectornator (http://vectornator.io/) -->
<svg height="100%" stroke-miterlimit="10" style="fill-rule:nonzero;clip-rule:evenodd;stroke-linecap:round;stroke-linejoin:round;" version="1.1" viewBox="0 0 32 32" width="100%" xml:space="preserve" xmlns="http://www.w3.org/2000/svg" xmlns:xlink="http://www.w3.org/1999/xlink">
<defs/>
<g id="Untitled">
<path d="M16 2C8.26 2 2 8.26 2 16C2 23.74 8.26 30 16 30C23.74 30 30 23.74 30 16C30 8.26 23.74 2 16 2ZM16 28C9.37 28 4 22.63 4 16C4 9.37 9.37 4 16 4C22.63 4 28 9.37 28 16C28 22.63 22.63 28 16 28Z" fill="currentColor" fill-rule="nonzero" opacity="1" stroke="none"/>
<path d="M23.07 15L8.93 15C7.61 15 7.61 17 8.93 17L23.07 17C24.39 17 24.39 15 23.07 15Z" fill="currentColor" fill-rule="nonzero" opacity="1" stroke="none"/>
</g>
</svg>
